<svg width="1898" height="339" viewBox="0 0 1898 339" fill="none" xmlns="http://www.w3.org/2000/svg">
<path d="M444.592 117.373C444.108 116.936 443.529 116.617 442.901 116.442C442.273 116.267 441.613 116.239 440.973 116.362L437.941 116.95L437.778 116.787V116.981C417.822 120.797 397.67 124.938 378.139 128.949C364.085 131.818 349.51 134.819 335.195 137.655C303.796 143.883 270.405 150.144 233.167 156.828L231.701 157.089C212.625 160.513 192.931 164.033 173.758 168.827L156.443 136.448C156.029 135.609 155.342 134.935 154.494 134.538C153.647 134.141 152.69 134.044 151.78 134.264C128.727 136.415 127 135.796 104.597 141.666C103.857 141.841 103.18 142.217 102.639 142.752C102.099 143.287 101.716 143.961 101.533 144.699C101.323 145.458 101.312 146.259 101.501 147.024C101.689 147.789 102.071 148.493 102.609 149.068C103.103 149.551 103.716 149.896 104.385 150.068C105.055 150.239 105.758 150.232 106.423 150.045C127.716 144.438 128.302 145.188 150.215 143.003L167.954 176.222C167.954 176.226 167.955 176.23 167.956 176.234C167.958 176.238 167.96 176.242 167.963 176.245C167.966 176.248 167.969 176.251 167.973 176.252C167.977 176.254 167.981 176.255 167.986 176.255L231.44 295.042C231.374 295.073 231.31 295.073 231.243 295.106L234.765 301.139L225.212 313.985C223.222 316.496 221.266 319.008 219.278 321.486C208.288 335.344 196.941 349.69 187.158 364.853C182.907 365.286 178.868 366.926 175.518 369.58C172.172 372.319 169.773 376.042 168.661 380.221C167.549 384.4 167.781 388.823 169.323 392.862C170.874 396.889 173.574 400.371 177.087 402.875C180.6 405.38 184.772 406.797 189.084 406.95C190.571 406.982 192.058 406.851 193.517 406.559C197.144 405.84 200.547 404.267 203.445 401.97C206.343 399.674 208.652 396.72 210.18 393.353C212.238 388.892 212.563 383.825 211.093 379.137C209.532 375.145 206.876 371.675 203.43 369.126C201.343 367.325 198.93 365.941 196.322 365.049L223.255 328.954C224.038 327.944 224.854 326.933 225.636 325.954C231.049 319.14 236.593 312.096 241.973 304.988C242.09 305.015 242.21 305.027 242.331 305.021C283.741 307.988 325.478 312.032 366.401 317.021C367.313 317.119 368.259 317.218 369.269 317.315C373.249 317.674 377.781 318.065 380.682 320.576C382.787 322.593 384.433 325.039 385.508 327.749C383.842 328.442 382.22 329.238 380.651 330.13C380.526 330.199 380.406 330.275 380.291 330.358C380.177 330.426 380.069 330.502 379.965 330.585C376.538 333.304 374.041 337.021 372.82 341.222C371.599 345.423 371.714 349.899 373.149 354.032C374.7 358.058 377.4 361.539 380.913 364.044C384.427 366.549 388.598 367.966 392.91 368.119C394.398 368.151 395.885 368.02 397.345 367.728C400.972 367.008 404.375 365.435 407.272 363.139C410.17 360.842 412.478 357.888 414.007 354.522C416.065 350.06 416.391 344.992 414.92 340.304C413.347 336.319 410.693 332.853 407.257 330.295C403.798 327.069 399.202 325.345 394.475 325.502C393.987 325.533 393.529 325.599 393.041 325.632C390.073 318.98 385.835 312.458 377.292 310.665C373.443 309.849 369.466 309.426 365.586 309.002C364.151 308.839 362.749 308.708 361.347 308.545C356.032 307.894 350.587 307.273 345.141 306.654C323.621 304.209 301.773 302.024 280.188 300.165C272.492 299.513 264.634 298.861 256.709 298.242C262.057 297.132 267.436 296.09 272.687 295.047L274.219 294.753C279.565 293.709 284.979 292.535 290.228 291.428C290.587 291.464 290.949 291.453 291.305 291.394C291.739 291.306 292.156 291.152 292.543 290.937C298.74 289.601 305.097 288.264 311.358 287.09C325.412 284.448 339.825 282.231 353.747 280.079C364.834 278.384 376.311 276.624 387.593 274.634C390.919 274.048 394.147 273.46 397.246 272.874C409.7 270.493 420.591 268.048 430.96 265.244C431.835 265.04 432.625 264.57 433.221 263.898C433.817 263.226 434.19 262.385 434.287 261.493C435.461 252.005 436.145 242.288 436.83 232.93C437.124 228.984 437.418 224.94 437.743 220.929C438.134 216.267 438.656 211.506 439.145 206.91C439.569 203.094 439.993 199.181 440.352 195.301C441.72 180.074 442.83 164.552 443.938 149.56L444.493 142.061C444.689 139.354 444.884 136.615 445.081 133.909C445.309 130.648 445.536 127.42 445.797 124.159L445.928 124.126L445.797 124.029C445.862 122.985 445.961 121.942 446.025 120.898C446.074 120.24 445.97 119.579 445.722 118.967C445.473 118.356 445.086 117.81 444.592 117.373ZM201.343 385.502C201.34 387.776 200.663 389.997 199.397 391.885C198.132 393.774 196.335 395.245 194.233 396.112C192.132 396.979 189.82 397.203 187.591 396.757C185.362 396.31 183.316 395.213 181.71 393.603C180.105 391.993 179.013 389.944 178.572 387.714C178.132 385.483 178.363 383.172 179.236 381.073C180.108 378.974 181.584 377.181 183.476 375.921C185.368 374.66 187.591 373.989 189.865 373.992C192.912 374 195.832 375.216 197.984 377.374C200.136 379.532 201.344 382.455 201.343 385.502ZM394.145 335.286C396.422 335.286 398.648 335.961 400.541 337.226C402.435 338.491 403.91 340.288 404.782 342.392C405.653 344.496 405.881 346.81 405.437 349.044C404.993 351.277 403.897 353.328 402.287 354.938C400.677 356.548 398.625 357.645 396.392 358.089C394.159 358.533 391.844 358.305 389.741 357.433C387.637 356.562 385.839 355.086 384.574 353.193C383.309 351.299 382.635 349.073 382.635 346.796C382.635 343.744 383.848 340.816 386.006 338.658C388.165 336.499 391.092 335.286 394.145 335.286ZM380.842 137.1C382.016 149.165 382.886 161.284 383.451 173.458C364.148 177.73 344.79 181.697 325.377 185.359L318.954 149.393C340.218 145.318 360.695 141.241 380.845 137.1H380.842ZM324.334 228.074C308.225 231.141 292.225 234.315 276.332 237.596L263.584 204.499C281.942 201.729 300.234 198.664 318.46 195.304L324.334 228.074ZM262.608 160.023C268.022 159.012 273.468 158.002 278.88 156.991C289.671 155.002 300.236 153.013 310.573 151.024L316.965 186.925C298.117 190.381 279.27 193.522 260.424 196.348L247.512 162.828C252.634 161.882 257.657 160.936 262.612 160.023H262.608ZM177.862 176.587C194.232 172.609 210.763 169.512 227.687 166.479L239.033 164.425L251.816 197.652C249.86 197.946 247.903 198.238 245.947 198.499C228.631 200.977 210.893 203.228 193.188 205.218L177.862 176.587ZM197.493 213.303C216.666 211.119 235.827 208.619 254.978 205.804L267.892 239.356C266.424 239.65 264.956 239.944 263.488 240.269C248.392 243.433 232.838 246.824 217.252 250.344L197.493 213.303ZM277.184 285.462L269.749 286.93C260.065 288.854 250.088 290.81 240.305 293.158C240.24 293.158 240.174 293.125 240.11 293.125L221.426 258.138C237.925 254.454 254.447 250.889 270.993 247.443L285.012 283.866C282.405 284.42 279.797 284.942 277.188 285.462H277.184ZM314.292 277.865C313.149 278.062 311.975 278.29 310.834 278.518C304.997 279.627 299.161 280.865 293.454 282.072L279.433 245.682C294.922 242.487 310.378 239.454 325.835 236.486L332.649 274.735C326.522 275.745 320.393 276.757 314.295 277.865H314.292ZM382.146 266.908C372.168 268.604 362.257 270.136 352.474 271.669L352.277 271.702C348.594 272.255 344.877 272.843 341.127 273.429L334.251 234.956C350.947 231.825 367.576 228.836 384.139 225.989C383.846 239.619 383.181 253.26 382.144 266.91L382.146 266.908ZM384.266 217.248C367.017 220.215 349.833 223.291 332.713 226.476L326.88 193.737L331.642 192.857C349.12 189.532 366.511 185.956 383.818 182.13C384.238 193.836 384.389 205.542 384.27 217.249L384.266 217.248ZM428.383 231.888C427.763 240.365 427.144 249.106 426.165 257.713C414.427 260.778 402.623 263.223 390.82 265.374C391.798 251.777 392.418 238.148 392.679 224.486C404.679 222.465 416.97 220.442 429.395 218.486C429.038 222.989 428.713 227.488 428.386 231.89L428.383 231.888ZM431.35 197.683C430.958 201.628 430.567 205.671 430.209 209.715C417.753 211.672 405.265 213.693 392.842 215.813C392.94 203.976 392.743 192.107 392.287 180.271C406.048 177.173 419.97 173.848 433.828 170.357C433.082 179.523 432.202 188.718 431.353 197.685L431.35 197.683ZM436.079 139.902C435.557 147.043 435.035 154.217 434.513 161.359C420.362 164.914 406.159 168.315 391.903 171.564C391.315 159.469 390.435 147.404 389.261 135.37C404.717 132.208 420.956 128.914 437.129 125.816C436.767 130.514 436.407 135.21 436.082 139.904L436.079 139.902Z" fill="#FF9F1C"/>
<path d="M174.768 318.103C174.735 318.103 174.735 318.135 174.704 318.135V318.103C174.77 318.075 174.829 318.034 174.879 317.982C174.928 317.93 174.966 317.868 174.99 317.801C175.014 317.733 175.024 317.662 175.02 317.59C175.015 317.519 174.996 317.449 174.963 317.385C170.936 309.983 167.322 302.363 164.139 294.56C164.116 294.486 164.078 294.417 164.025 294.36C163.972 294.303 163.908 294.259 163.835 294.231C163.763 294.202 163.685 294.191 163.608 294.198C163.53 294.204 163.456 294.228 163.389 294.268C160.422 295.8 156.606 296.224 153.997 298.376C153.936 298.44 153.892 298.518 153.869 298.603C153.846 298.689 153.845 298.779 153.867 298.865C156.007 305.532 158.769 311.984 162.118 318.135C162.801 319.472 163.813 322.897 165.182 323.679C165.624 323.868 166.114 323.914 166.584 323.81C167.497 323.646 168.801 322.278 169.648 321.787C171.375 320.767 173.173 319.873 175.029 319.114C175.649 318.82 175.388 317.843 174.768 318.103Z" fill="#FFC3A9"/>
<path d="M244.748 315.495C244.777 315.469 244.798 315.438 244.812 315.402C244.826 315.367 244.832 315.329 244.829 315.291C244.825 315.253 244.814 315.216 244.794 315.184C244.774 315.151 244.747 315.124 244.715 315.103C234.753 308.354 223.354 304.022 211.424 302.451C206.079 301.811 200.685 301.691 195.317 302.093C191.143 302.386 185.665 302.386 182.209 305.159C180.686 306.635 179.419 308.353 178.459 310.244C175.882 314.321 172.883 316.18 168.024 314.876C165.643 314.223 161.601 312.853 160.328 316.147C159.611 318.004 160.98 320.255 161.632 321.918C162.645 324.462 163.719 326.972 164.763 329.483C167.339 335.581 169.98 341.645 172.492 347.776C172.499 347.81 172.514 347.842 172.535 347.87C172.557 347.898 172.584 347.92 172.615 347.936C172.647 347.951 172.681 347.959 172.716 347.96C172.751 347.96 172.786 347.953 172.817 347.938C197.468 338.809 220.619 326.319 244.715 315.919C244.774 315.866 244.81 315.792 244.816 315.714C244.822 315.635 244.798 315.556 244.748 315.495ZM192.023 302.581C192.969 302.484 193.915 302.419 194.86 302.386C193.944 302.42 192.996 302.485 192.018 302.581H192.023ZM161.111 315.267C160.857 315.517 160.657 315.816 160.525 316.147C160.372 316.564 160.316 317.01 160.361 317.451C160.197 317.059 160.182 316.62 160.319 316.218C160.456 315.815 160.736 315.477 161.105 315.267H161.111Z" fill="#FF9F1C"/>
<path d="M170.464 335.189L170.431 335.156C170.494 335.125 170.55 335.082 170.596 335.029C170.642 334.976 170.677 334.914 170.698 334.847C170.72 334.78 170.727 334.71 170.721 334.64C170.714 334.57 170.694 334.502 170.66 334.44C166.496 327.11 162.74 319.555 159.41 311.809C159.388 311.735 159.349 311.666 159.297 311.609C159.244 311.552 159.179 311.507 159.107 311.479C159.034 311.451 158.956 311.44 158.879 311.446C158.802 311.453 158.727 311.477 158.66 311.517C155.726 313.083 151.91 313.604 149.368 315.789C149.299 315.848 149.251 315.926 149.227 316.013C149.204 316.1 149.207 316.192 149.237 316.277C151.602 323.14 154.604 329.766 158.204 336.069C158.954 337.438 159.801 340.308 161.269 340.929C162.476 341.451 163.225 340.374 164.172 339.722C166.298 338.308 168.546 337.085 170.888 336.069C171.507 335.842 171.019 335.026 170.464 335.189Z" fill="#FFC3A9"/>
<path d="M237.016 333.395C237.044 333.369 237.066 333.337 237.08 333.302C237.094 333.267 237.099 333.229 237.096 333.191C237.093 333.153 237.081 333.116 237.061 333.084C237.042 333.051 237.015 333.024 236.983 333.003C227.021 326.254 215.621 321.922 203.691 320.351C198.346 319.711 192.951 319.591 187.583 319.992C183.409 320.286 177.932 320.286 174.475 323.057C172.953 324.535 171.686 326.253 170.725 328.144C168.149 332.221 165.149 334.078 160.29 332.774C157.909 332.123 153.865 330.753 152.594 334.047C151.877 335.904 153.246 338.155 153.898 339.817C154.909 342.362 155.985 344.872 157.029 347.383C159.604 353.481 162.246 359.545 164.756 365.676C164.763 365.71 164.778 365.742 164.8 365.77C164.821 365.798 164.849 365.82 164.88 365.836C164.912 365.851 164.946 365.859 164.981 365.86C165.016 365.86 165.051 365.852 165.083 365.838C189.734 356.709 212.885 344.219 236.981 333.817C237.014 333.794 237.041 333.763 237.061 333.728C237.081 333.693 237.093 333.654 237.096 333.614C237.099 333.574 237.094 333.533 237.08 333.495C237.066 333.458 237.044 333.423 237.016 333.395Z" fill="#FF9F1C"/>
<path d="M194.79 299.028C193.62 300.172 192.744 301.582 192.239 303.138C191.733 304.694 191.613 306.349 191.887 307.962C192.082 309.234 194.039 308.712 193.844 307.408C193.659 306.139 193.779 304.845 194.192 303.632C194.606 302.419 195.302 301.321 196.223 300.43C197.169 299.55 195.734 298.115 194.79 299.028Z" fill="#FFC3A9"/>
<path d="M202.648 300.136C201.152 300.994 199.938 302.266 199.151 303.8C198.364 305.334 198.038 307.063 198.213 308.778C198.343 310.049 200.397 310.082 200.235 308.778C200.069 307.417 200.305 306.038 200.913 304.809C201.521 303.581 202.475 302.557 203.658 301.864C204.799 301.245 203.789 299.484 202.648 300.136Z" fill="#FFC3A9"/>
<path d="M208.81 301.567C206.702 303.589 205.413 306.318 205.19 309.23C205.093 310.535 207.114 310.535 207.213 309.23C207.41 306.855 208.478 304.637 210.213 303.002C211.191 302.089 209.756 300.654 208.81 301.567Z" fill="#FFC3A9"/>
<path d="M215.626 301.768C213.214 304.11 211.742 307.252 211.485 310.604C211.385 311.907 213.408 311.907 213.505 310.604C213.731 307.788 214.984 305.153 217.027 303.202C218.005 302.289 216.57 300.854 215.626 301.768Z" fill="#FFC3A9"/>
<path d="M223.059 324.918C213.004 319.655 201.834 316.882 190.486 316.831C186.051 316.831 181.974 316.864 178.193 319.342C174.393 321.911 171.218 325.298 168.899 329.255C168.215 330.363 169.975 331.407 170.66 330.266C172.931 326.344 176.12 323.031 179.953 320.613C182.521 319.265 185.405 318.634 188.301 318.787C187.15 320.528 186.632 322.612 186.833 324.69C186.964 325.961 188.985 325.994 188.854 324.69C188.721 323.643 188.822 322.579 189.149 321.576C189.476 320.572 190.022 319.654 190.746 318.886C190.778 318.853 190.778 318.82 190.811 318.82C191.496 318.853 192.181 318.886 192.865 318.886L194.757 318.984C193.966 320.012 193.428 321.211 193.184 322.485C192.941 323.759 192.999 325.072 193.355 326.32C193.437 326.57 193.612 326.778 193.844 326.902C194.076 327.026 194.346 327.055 194.599 326.983C194.852 326.912 195.068 326.745 195.201 326.518C195.333 326.292 195.373 326.022 195.312 325.767C194.997 324.693 194.976 323.555 195.252 322.471C195.527 321.386 196.088 320.396 196.877 319.603C196.987 319.477 197.076 319.334 197.138 319.178C198.413 319.308 199.685 319.472 200.954 319.669C199.252 321.687 198.307 324.235 198.281 326.874C198.281 327.142 198.387 327.399 198.577 327.589C198.766 327.778 199.023 327.885 199.291 327.885C199.559 327.885 199.816 327.778 200.006 327.589C200.195 327.399 200.302 327.142 200.302 326.874C200.341 324.591 201.21 322.401 202.747 320.712C202.915 320.537 203.009 320.303 203.008 320.06C204.345 320.321 205.65 320.613 206.954 320.94C206.137 322.011 205.548 323.237 205.223 324.543C204.897 325.85 204.843 327.209 205.062 328.537C205.258 329.808 207.215 329.287 207.018 327.982C206.87 326.949 206.933 325.897 207.202 324.888C207.471 323.88 207.941 322.936 208.584 322.114C208.731 321.916 208.811 321.676 208.811 321.429C213.387 322.738 217.821 324.497 222.05 326.68C223.182 327.266 224.226 325.506 223.059 324.918Z" fill="#FFC3A9"/>
<path d="M99.369 15.8163C100.006 15.2323 100.464 14.479 100.687 13.6447C100.911 12.8104 100.893 11.9296 100.633 11.1056C100.523 10.7311 100.297 10.4013 99.987 10.1638C99.677 9.92634 99.2994 9.79353 98.9087 9.78458C98.2857 9.84221 97.6693 9.95712 97.0674 10.1279C97.7693 8.84544 98.3469 7.4989 98.7921 6.10666C98.8712 5.80464 98.8699 5.4872 98.7882 5.18586C98.7065 4.88453 98.5473 4.60979 98.3264 4.38888C98.1055 4.16798 97.8306 4.0086 97.529 3.92659C97.2274 3.84458 96.9096 3.84279 96.6071 3.92138C94.8141 4.46311 93.0632 5.1351 91.3685 5.93196C91.7836 4.7432 92.1299 3.53158 92.4057 2.3031C92.6359 1.15375 91.5986 -0.455328 90.2207 0.120878C84.0065 2.60924 78.4886 6.5646 74.1396 11.6483C69.7906 16.732 66.7401 22.7926 65.2491 29.3112C65.1681 29.7056 65.2189 30.1158 65.3938 30.4786C65.5687 30.8414 65.858 31.1369 66.2173 31.3196C66.5766 31.5023 66.9861 31.5622 67.3827 31.4901C67.7794 31.4179 68.1414 31.2178 68.4132 30.9203C74.5287 30.9315 80.6391 30.5671 86.7099 29.8292C90.9664 29.0231 94.8209 24.772 97.8714 21.9002C99.3107 20.521 101.382 18.4522 99.8294 16.3251C99.5992 16.0952 99.4826 15.9328 99.369 15.8163Z" fill="black"/>
<path d="M170.236 305.778C170.203 305.386 170.139 304.995 170.106 304.604C170.111 304.505 170.1 304.405 170.073 304.31C163.351 282.122 154.913 260.491 144.835 239.612C134.056 216.405 121.837 193.895 108.25 172.213C105.088 167.159 101.794 162.202 98.4023 157.279C96.9031 155.094 95.3378 152.91 93.7726 150.758C92.4351 148.899 90.936 145.866 89.1098 144.497C87.381 143.193 83.7287 143.29 81.6417 142.932C67.7201 140.487 53.7972 138.052 39.8733 135.627C28.9164 133.704 17.9942 131.78 7.03732 129.888C6.54861 129.789 5.86337 130.018 5.79902 130.605C3.16969 148.484 4.97212 166.735 11.0479 183.754C16.9069 199.548 24.3008 214.728 33.1235 229.078C49.6023 256.893 69.835 282.305 93.2508 304.597C106.464 317.147 120.624 328.66 135.607 339.033C135.761 339.121 135.935 339.168 136.112 339.168C136.29 339.168 136.464 339.121 136.618 339.033C146.564 333.554 155.302 325.925 164.399 319.175C164.591 319.062 164.739 318.888 164.821 318.682C164.904 318.475 164.916 318.248 164.855 318.034C164.139 315.686 163.422 313.338 162.671 311.023C164.881 309.4 167.214 307.95 169.648 306.687C169.82 306.603 169.965 306.474 170.068 306.314C170.172 306.154 170.23 305.968 170.236 305.778Z" fill="black"/>
<path d="M134.564 130.318C134.238 128.524 132.901 128.102 131.336 128.102C132.998 127.319 134.303 126.276 133.781 124.71C133.226 123.145 131.63 122.721 129.803 122.851C130.15 122.597 130.394 122.227 130.49 121.808C130.585 121.388 130.527 120.949 130.325 120.569C129.64 119.265 128.108 119.395 126.869 119.557C123.321 120.094 119.82 120.912 116.401 122.004C111.804 123.34 106.326 124.841 103.162 128.721C101.624 130.747 100.686 133.165 100.456 135.699C100.326 136.612 100.555 138.763 99.8371 139.318C98.9571 140.003 95.3048 138.927 94.2282 138.763H94.0665C93.9599 138.76 93.8555 138.794 93.7723 138.861C93.6891 138.928 93.6324 139.022 93.6125 139.127C92.2751 143.462 92.3081 148.028 91.4925 152.463C91.4728 152.539 91.4705 152.618 91.4858 152.695C91.5011 152.772 91.5335 152.844 91.5806 152.907C91.6277 152.97 91.6884 153.021 91.758 153.057C91.8277 153.093 91.9045 153.113 91.9829 153.115C95.5691 153.407 99.124 153.571 102.71 153.538C104.862 153.538 107.503 153.701 109.394 152.463C110.752 151.432 111.7 149.953 112.069 148.289C112.246 147.103 112.53 145.935 112.916 144.8C113.992 142.777 116.013 142.549 118.036 142.255C121.136 141.826 124.184 141.083 127.134 140.038C128.763 139.452 131.176 138.8 132.024 137.104C133.068 134.886 131.405 134.039 129.579 133.876C130.496 133.501 131.431 133.174 132.383 132.899C132.932 132.823 133.463 132.646 133.948 132.377C134.221 132.117 134.422 131.79 134.53 131.429C134.638 131.068 134.65 130.685 134.564 130.318Z" fill="#FFC3A9"/>
<path d="M130.39 118.778C130.064 116.983 128.727 116.561 127.162 116.561C128.824 115.778 130.129 114.735 129.607 113.169C129.054 111.604 127.455 111.18 125.629 111.31C125.976 111.056 126.22 110.686 126.316 110.267C126.412 109.847 126.353 109.408 126.151 109.028C125.466 107.724 123.934 107.854 122.695 108.018C119.147 108.553 115.647 109.371 112.229 110.463C107.63 111.799 102.152 113.3 98.9901 117.18C97.4501 119.205 96.5121 121.624 96.284 124.158C96.1535 125.071 96.3813 127.222 95.6631 127.777C94.783 128.462 91.1307 127.385 90.0559 127.222H89.8924C89.7857 127.217 89.681 127.251 89.5971 127.317C89.5132 127.383 89.4557 127.477 89.435 127.582C88.0993 131.918 88.1306 136.483 87.3167 140.918C87.2971 140.994 87.2948 141.073 87.3099 141.15C87.3251 141.227 87.3573 141.299 87.4043 141.362C87.4512 141.424 87.5116 141.476 87.5811 141.512C87.6505 141.548 87.7272 141.568 87.8054 141.57C91.3916 141.863 94.9465 142.026 98.5327 141.993C100.686 141.993 103.326 142.156 105.218 140.918C106.575 139.887 107.523 138.408 107.891 136.744C108.069 135.558 108.352 134.391 108.738 133.255C109.815 131.233 111.838 131.005 113.858 130.711C116.958 130.281 120.006 129.539 122.956 128.495C124.586 127.907 127 127.255 127.847 125.559C128.89 123.342 127.228 122.495 125.402 122.331C126.318 121.956 127.254 121.63 128.205 121.354C128.755 121.279 129.286 121.102 129.77 120.832C130.044 120.574 130.245 120.248 130.354 119.888C130.462 119.527 130.475 119.145 130.39 118.778Z" fill="#FFC3A9"/>
<path d="M99.9345 139.188C99.5119 138.047 98.3379 137.525 97.2283 136.937C97.7172 133.271 98.011 129.582 98.1084 125.884C98.1185 125.734 98.0911 125.584 98.0285 125.448C97.966 125.311 97.8702 125.192 97.7501 125.102C97.717 125.069 97.6857 125.036 97.6527 125.036C97.5642 124.973 97.4643 124.929 97.3588 124.905C94.6856 124.123 92.0108 123.276 89.3707 122.46C90.7725 108.797 91.9134 94.7111 90.7081 81.0167C90.1202 75.2719 89.0396 69.5881 87.4784 64.0283C85.9462 58.322 84.0557 52.5183 79.3268 48.6382C74.1093 44.3337 68.0447 44.0398 61.6549 45.2468C55.078 46.4432 48.736 48.6887 42.8716 51.8975C29.7946 59.1377 15.7402 69.0494 9.08956 82.8429C5.33862 90.313 4.47119 98.9032 6.65295 106.972C7.17471 108.863 8.5765 110.95 8.83738 112.874C9.09826 114.83 6.686 117.7 5.80597 119.493C3.5675 124.042 1.63898 128.738 0.0335897 133.547C-0.0349018 133.807 0.0022393 134.083 0.136875 134.315C0.271512 134.547 0.492664 134.716 0.751876 134.786C8.91041 137.567 17.2161 139.896 25.631 141.763C29.739 142.643 33.88 143.426 38.021 144.111C42.3255 144.796 46.4996 145.057 50.5102 146.817C65.4233 153.346 81.3301 157.315 97.5623 158.557C97.7852 158.557 98.002 158.483 98.1788 158.348C98.3556 158.212 98.4825 158.021 98.5397 157.806C99.2584 153.814 99.6187 149.766 99.6162 145.709C99.7397 143.916 100.522 140.85 99.9345 139.188Z" fill="#FFC200"/>
<path d="M86.2776 23.4189C85.9332 22.2091 85.2845 21.1 84.3888 20.19C83.4931 19.2801 82.3783 18.5974 81.1433 18.2026C79.9083 17.8078 78.5913 17.7131 77.3092 17.9269C76.0272 18.1407 74.8197 18.6565 73.794 19.4283C73.6997 19.4943 73.6231 19.5812 73.5708 19.6816C73.5184 19.782 73.4918 19.8931 73.4931 20.0054C73.416 19.9542 73.3285 19.9193 73.2363 19.9032C73.1442 19.8871 73.0495 19.8901 72.9587 19.912C72.8678 19.9339 72.7829 19.9742 72.7094 20.0302C72.636 20.0862 72.5758 20.1567 72.5328 20.2369C68.0323 25.7922 62.8116 34.5295 66.4126 41.7051C67.0128 42.9139 67.8975 43.9709 68.9963 44.7917C70.0951 45.6125 71.3775 46.1745 72.7414 46.4329C74.1054 46.6913 75.513 46.639 76.8522 46.28C78.1914 45.9211 79.4252 45.2655 80.4551 44.3655C83.3164 41.7192 85.3717 38.3681 86.3981 34.6756C87.4245 30.9831 87.3828 27.0901 86.2776 23.4189Z" fill="#FFC3A9"/>
<path d="M8.53648 113.851C17.7333 128.493 31.2973 138.502 46.6543 145.937C47.8283 146.492 48.8405 144.763 47.6666 144.177C32.6017 136.873 19.2656 127.156 10.2652 112.809C10.1215 112.591 9.89906 112.438 9.64455 112.38C9.39004 112.323 9.12316 112.366 8.89979 112.501C8.67641 112.636 8.51385 112.852 8.44613 113.104C8.37841 113.356 8.41079 113.622 8.53648 113.851Z" fill="#FFC3A9"/>
<path d="M98.8301 135.927C95.6824 134.566 92.6127 133.031 89.635 131.33C89.742 131.189 89.7994 131.016 89.7985 130.839C90.0263 128.297 90.2542 125.785 90.5151 123.243C90.6455 121.938 88.5915 121.938 88.4941 123.243C88.2645 125.591 88.0697 127.938 87.8419 130.286C81.5848 126.55 75.6901 122.238 70.2343 117.406C66.1246 113.787 62.2114 109.94 58.4618 105.927C53.3103 100.416 49.2997 94.7755 53.0824 87.144C53.6685 85.97 51.9085 84.9578 51.3206 86.1318C49.963 88.5116 49.321 91.2327 49.4715 93.9684C49.6221 96.7042 50.5588 99.3384 52.1694 101.555C56.037 106.793 60.4891 111.574 65.4394 115.804C74.9045 124.884 85.8566 132.274 97.8197 137.652C98.9901 138.177 100.034 136.415 98.8301 135.927Z" fill="#FFC3A9"/>
<path d="M163.006 309.462C159.94 301.767 157.3 293.974 153.942 286.409C149.57 276.528 145.071 266.68 140.442 256.867C131.377 237.596 121.954 218.554 112.267 199.576C106.43 188.097 100.496 176.687 94.5622 165.274C93.943 164.1 92.2143 165.144 92.8004 166.284C112.528 204.108 131.864 242.162 149.341 281.071C153.613 290.591 157.168 300.275 161.015 309.961C161.537 311.232 163.493 310.71 163.005 309.47L163.006 309.462Z" fill="#FFC3A9"/>
<path d="M101.305 138.796C100.522 129.862 108.217 125.003 115.782 122.591C117.976 121.906 120.208 121.351 122.467 120.928C124.645 120.229 126.933 119.941 129.216 120.079C130.162 120.276 130.586 118.808 129.607 118.613C127.188 118.434 124.757 118.7 122.434 119.396C119.094 119.983 115.818 120.889 112.651 122.102C105.38 125.069 99.0214 130.221 99.804 138.798C99.8701 139.777 101.402 139.777 101.305 138.798V138.796Z" fill="#FF9F1C"/>
<path d="M129.118 122.232C126.198 122.421 123.315 122.991 120.542 123.928C118.064 124.71 115.488 124.905 113.37 126.504C112.587 127.09 113.337 128.394 114.152 127.808C116.173 126.276 118.619 126.145 120.967 125.394C123.615 124.508 126.365 123.96 129.151 123.764C130.097 123.667 130.097 122.166 129.118 122.232Z" fill="#FF9F1C"/>
<path d="M131.042 127.45C125.604 127.98 120.243 129.128 115.065 130.873C114.152 131.199 114.544 132.699 115.457 132.34C120.496 130.625 125.714 129.487 131.01 128.949C132.021 128.852 132.021 127.319 131.042 127.45Z" fill="#FF9F1C"/>
<path d="M129.379 133.387C124.856 133.457 120.375 134.261 116.109 135.767C115.196 136.127 115.587 137.593 116.5 137.234C120.641 135.771 124.988 134.978 129.379 134.887C130.358 134.853 130.358 133.321 129.379 133.387Z" fill="#FF9F1C"/>
<path d="M124.918 110.526C119.537 111.341 113.015 112.352 108.418 115.416C107.603 115.971 108.352 117.276 109.201 116.721C113.636 113.787 120.158 112.776 125.341 111.994C126.287 111.863 125.895 110.395 124.918 110.526Z" fill="#FF9F1C"/>
<path d="M126.509 115.907C121.17 116.123 115.903 117.224 110.924 119.166C110.011 119.526 110.403 120.992 111.316 120.634C116.154 118.718 121.279 117.627 126.478 117.406C127.489 117.373 127.489 115.841 126.509 115.907Z" fill="#FF9F1C"/>
<path d="M68.5825 29.3442C72.636 23.5249 77.4873 17.0178 85.369 17.246C85.8382 17.246 86.2883 17.0597 86.6201 16.7281C86.952 16.3965 87.1384 15.9467 87.1384 15.4777C87.1384 15.0087 86.952 14.5589 86.6201 14.2273C86.2883 13.8957 85.8382 13.7094 85.369 13.7094C76.1748 13.4811 70.3519 20.6701 65.5553 27.5759C64.1848 29.4599 67.2668 31.2282 68.5825 29.3442Z" fill="black"/>
<path d="M187.55 364.274L234.765 301.148L242.004 304.962L196.354 365.025L187.55 364.274Z" fill="#FF9F1C"/>
<line x1="449" y1="181.5" x2="1954" y2="181.5" stroke="black"/>
</svg>
