<svg width="589" height="413" viewBox="0 0 589 413" fill="none" xmlns="http://www.w3.org/2000/svg">
<g clip-path="url(#clip0_29_1143)">
<path d="M556.791 413L416.442 412.352C408.335 412.313 400.576 409.06 394.87 403.311C389.164 397.561 385.978 389.784 386.013 381.689L387.494 30.397C387.512 26.3878 388.32 22.4212 389.873 18.7238C391.426 15.0264 393.693 11.6706 396.544 8.84798C399.396 6.02536 402.777 3.7912 406.494 2.27306C410.21 0.75493 414.19 -0.0174421 418.206 4.63305e-05L558.555 0.64785C566.66 0.687413 574.419 3.93683 580.127 9.68268C585.835 15.4285 589.027 23.2011 589 31.294L587.503 382.603C587.485 386.612 586.677 390.579 585.124 394.276C583.571 397.974 581.304 401.329 578.452 404.152C575.601 406.975 572.22 409.209 568.503 410.727C564.786 412.245 560.807 413.018 556.791 413Z" fill="#0C0C0C"/>
<path d="M558.288 12.7734L531.087 12.6405C530.197 12.6535 529.319 12.8419 528.502 13.195C527.685 13.548 526.946 14.0587 526.328 14.6977C525.709 15.3368 525.224 16.0915 524.898 16.9186C524.573 17.7457 524.415 18.6288 524.432 19.5172V24.5003C524.448 25.3882 524.288 26.2703 523.962 27.0964C523.636 27.9226 523.15 28.6764 522.532 29.315C521.914 29.9536 521.176 30.4644 520.36 30.8182C519.544 31.172 518.667 31.3619 517.777 31.377L464.822 31.0614C463.929 31.0464 463.047 30.8548 462.228 30.4979C461.409 30.141 460.669 29.6257 460.05 28.9818C459.432 28.3379 458.947 27.5781 458.624 26.7463C458.3 25.9144 458.145 25.0269 458.168 24.1349V19.1518C458.19 18.2598 458.035 17.3723 457.712 16.5404C457.388 15.7086 456.904 14.9488 456.285 14.3049C455.666 13.661 454.926 13.1457 454.107 12.7888C453.288 12.4319 452.406 12.2404 451.513 12.2253H441.947L418.289 12.1256C412.609 12.1035 407.152 14.3341 403.118 18.3272C399.085 22.3202 396.804 27.7489 396.777 33.4201L395.33 376.308C395.317 379.114 395.858 381.896 396.922 384.494C397.986 387.091 399.553 389.454 401.532 391.447C403.511 393.44 405.864 395.024 408.457 396.109C411.05 397.194 413.831 397.757 416.642 397.768L556.708 398.416C559.522 398.434 562.313 397.897 564.919 396.837C567.526 395.776 569.898 394.213 571.899 392.237C573.9 390.261 575.491 387.91 576.581 385.319C577.672 382.728 578.239 379.948 578.253 377.138L579.7 34.234C579.711 31.4197 579.165 28.6309 578.094 26.0277C577.023 23.4244 575.447 21.058 573.458 19.0641C571.469 17.0702 569.105 15.4881 566.501 14.4086C563.898 13.3291 561.107 12.7734 558.288 12.7734Z" fill="white"/>
<path d="M557.24 298.189L546.343 330.746C531.37 375.278 482.108 387.221 448.319 354.648L423.613 330.762C382.387 290.897 394.798 217.264 444.825 205.072L480.411 196.384C530.422 184.209 575.441 243.857 557.24 298.189Z" fill="#67AC40"/>
<path d="M470.267 234.978C496.242 228.646 515.282 215.263 512.793 205.086C510.304 194.908 487.23 191.791 461.255 198.122C435.28 204.454 416.24 217.837 418.729 228.014C421.218 238.192 444.292 241.309 470.267 234.978Z" fill="#0C0C0C"/>
<path d="M535.579 167.881C535.579 204.025 500.043 216.051 456.221 216.051C412.4 216.051 376.863 204.108 376.863 167.881C376.863 131.654 412.383 97.8018 456.221 97.8018C500.059 97.8018 535.579 131.72 535.579 167.881Z" fill="#67AC40"/>
<path d="M422.265 189.242C422.265 189.242 387.012 188.81 376.947 169.858C376.947 169.21 376.947 168.545 376.947 167.864C376.947 149.892 385.747 132.434 400.005 119.445H488.68C488.68 119.445 520.024 189.242 422.265 189.242Z" fill="#F0FAE0"/>
<path d="M399.889 158.38C406.385 158.38 411.651 152.408 411.651 145.042C411.651 137.675 406.385 131.704 399.889 131.704C393.393 131.704 388.126 137.675 388.126 145.042C388.126 152.408 393.393 158.38 399.889 158.38Z" fill="#FF9F1C"/>
<path d="M441.065 158.38C447.561 158.38 452.827 152.408 452.827 145.042C452.827 137.675 447.561 131.704 441.065 131.704C434.569 131.704 429.303 137.675 429.303 145.042C429.303 152.408 434.569 158.38 441.065 158.38Z" fill="#FF9F1C"/>
<path d="M416.426 172.034C405.479 172.034 405.312 162.184 405.312 162.067C405.31 161.996 405.322 161.925 405.348 161.859C405.374 161.792 405.413 161.732 405.462 161.681C405.512 161.63 405.571 161.589 405.637 161.561C405.703 161.533 405.773 161.519 405.845 161.519C405.989 161.523 406.126 161.582 406.228 161.684C406.33 161.786 406.389 161.923 406.394 162.067C406.394 162.416 406.577 170.937 416.376 170.937C426.175 170.937 426.358 162.416 426.358 162.067C426.358 161.922 426.416 161.783 426.519 161.68C426.622 161.577 426.761 161.519 426.907 161.519C426.978 161.519 427.049 161.533 427.115 161.561C427.18 161.589 427.24 161.63 427.289 161.681C427.339 161.732 427.378 161.792 427.404 161.859C427.429 161.925 427.442 161.996 427.439 162.067C427.539 162.184 427.356 172.034 416.426 172.034Z" fill="#25292B"/>
<path d="M508.228 204.789C508.146 204.812 508.06 204.812 507.979 204.789C507.916 204.756 507.86 204.711 507.815 204.656C507.77 204.601 507.736 204.537 507.716 204.469C507.696 204.401 507.689 204.33 507.697 204.259C507.705 204.188 507.727 204.12 507.762 204.058C515.541 189.642 518.752 173.208 516.969 156.93C515.187 140.652 508.495 125.298 497.78 112.901C497.687 112.793 497.642 112.652 497.652 112.511C497.663 112.369 497.73 112.237 497.838 112.145C497.946 112.052 498.087 112.006 498.229 112.017C498.371 112.028 498.503 112.095 498.595 112.203C509.472 124.753 516.271 140.307 518.093 156.803C519.914 173.3 516.671 189.959 508.794 204.573C508.733 204.662 508.646 204.731 508.545 204.769C508.444 204.808 508.333 204.815 508.228 204.789Z" fill="#25292B"/>
<path d="M459 106.306C458.893 106.312 458.788 106.283 458.7 106.223C458.64 106.185 458.589 106.135 458.549 106.076C458.509 106.017 458.481 105.951 458.467 105.881C458.453 105.811 458.453 105.74 458.468 105.67C458.482 105.6 458.51 105.534 458.55 105.476C462.616 99.2528 465.258 92.2122 466.291 84.8544C467.323 77.4966 466.719 70.0021 464.523 62.9034C464.482 62.7647 464.497 62.6152 464.565 62.4876C464.634 62.36 464.75 62.2646 464.889 62.2224C465.024 62.1808 465.169 62.1942 465.294 62.2596C465.419 62.3249 465.512 62.437 465.555 62.5712C467.8 69.825 468.417 77.4836 467.362 85.0025C466.307 92.5214 463.605 99.7157 459.449 106.074C459.398 106.146 459.331 106.204 459.253 106.245C459.174 106.285 459.088 106.306 459 106.306Z" fill="#25292B"/>
<path d="M465.005 74.3978C473.348 74.3978 480.112 67.6453 480.112 59.3156C480.112 50.9859 473.348 44.2334 465.005 44.2334C456.662 44.2334 449.899 50.9859 449.899 59.3156C449.899 67.6453 456.662 74.3978 465.005 74.3978Z" fill="#FF9F1C"/>
<path d="M522.802 289.834C535.5 289.834 545.794 276.813 545.794 260.75C545.794 244.686 535.5 231.665 522.802 231.665C510.104 231.665 499.81 244.686 499.81 260.75C499.81 276.813 510.104 289.834 522.802 289.834Z" fill="#7FAA4A"/>
<path d="M444.426 305.232C424.588 305.241 405.021 300.635 387.278 291.778C385.584 290.999 384.065 289.888 382.811 288.51C381.556 287.133 380.592 285.517 379.977 283.76C379.361 282.003 379.105 280.14 379.226 278.282C379.347 276.425 379.841 274.61 380.679 272.947C381.517 271.284 382.681 269.806 384.103 268.602C385.525 267.398 387.176 266.492 388.956 265.938C390.736 265.384 392.61 265.194 394.465 265.378C396.321 265.563 398.12 266.118 399.756 267.012C418.536 276.431 439.833 279.634 460.56 276.158C481.286 272.682 500.366 262.706 515.033 247.677C517.601 245.034 521.115 243.517 524.803 243.461C528.491 243.405 532.05 244.814 534.697 247.378C537.345 249.942 538.864 253.451 538.92 257.133C538.976 260.815 537.565 264.368 534.997 267.012C516.177 286.238 491.748 299.029 465.205 303.554C458.337 304.687 451.387 305.248 444.426 305.232Z" fill="#0C0C0C"/>
<path d="M393.167 265.766C393.064 268.867 392.474 271.933 391.421 274.852C390.1 278.591 388.047 282.031 385.383 284.971C382.718 287.911 379.494 290.293 375.898 291.977C372.311 293.684 368.42 294.664 364.451 294.861C360.481 295.057 356.512 294.467 352.773 293.123L351.492 292.658C349.804 292.057 348.425 290.811 347.657 289.194C346.89 287.577 346.797 285.722 347.399 284.037C348.002 282.352 349.25 280.975 350.869 280.209C352.488 279.442 354.346 279.35 356.034 279.951L357.332 280.399C359.398 281.147 361.592 281.479 363.787 281.375C365.982 281.272 368.135 280.735 370.121 279.796C372.107 278.857 373.887 277.534 375.359 275.904C376.83 274.275 377.963 272.37 378.693 270.3C380.191 266.135 379.972 261.546 378.085 257.542C376.198 253.537 372.797 250.443 368.628 248.939L367.347 248.474C365.659 247.873 364.28 246.627 363.512 245.01C362.745 243.394 362.652 241.539 363.254 239.854C363.857 238.169 365.105 236.791 366.724 236.025C368.343 235.259 370.201 235.166 371.889 235.767L373.17 236.216C379.209 238.391 384.4 242.424 387.995 247.735C391.589 253.047 393.4 259.36 393.167 265.766Z" fill="#FF9F1C"/>
<g clip-path="url(#clip1_29_1143)">
<path d="M346.674 261.729H338.709C338.623 261.728 338.54 261.693 338.48 261.629C338.419 261.565 338.385 261.479 338.385 261.389V256.34C338.385 256.25 338.419 256.163 338.48 256.1C338.54 256.036 338.623 256 338.709 256H346.674C346.717 255.999 346.76 256.008 346.799 256.024C346.839 256.041 346.876 256.066 346.906 256.098C346.937 256.129 346.961 256.167 346.978 256.208C346.995 256.25 347.003 256.295 347.003 256.34V261.39C347.003 261.435 346.994 261.48 346.978 261.521C346.961 261.562 346.936 261.6 346.906 261.631C346.875 261.663 346.839 261.688 346.799 261.704C346.759 261.721 346.717 261.729 346.674 261.729ZM338.709 256.051C338.636 256.051 338.566 256.081 338.514 256.136C338.462 256.19 338.433 256.263 338.433 256.34V261.39C338.433 261.467 338.462 261.54 338.514 261.594C338.566 261.648 338.636 261.679 338.709 261.679H346.674C346.747 261.679 346.817 261.649 346.869 261.594C346.921 261.54 346.95 261.467 346.95 261.39V256.34C346.95 256.263 346.921 256.19 346.869 256.136C346.817 256.081 346.747 256.051 346.674 256.051H338.709Z" fill="#0C0C0C"/>
<path d="M338.709 256.026H346.674C346.753 256.026 346.83 256.059 346.886 256.118C346.942 256.176 346.974 256.256 346.974 256.34V256.678H338.408V256.34C338.408 256.298 338.416 256.257 338.431 256.219C338.446 256.181 338.468 256.146 338.496 256.117C338.524 256.088 338.557 256.065 338.594 256.049C338.63 256.034 338.669 256.025 338.709 256.026Z" fill="#0C0C0C"/>
<path d="M338.952 258.202H340.207V256.888H338.952V258.202Z" fill="#F0FAE0"/>
<path d="M338.952 259.79H340.207V258.475H338.952V259.79Z" fill="#F0FAE0"/>
<path d="M338.952 261.331H340.207V260.016H338.952V261.331Z" fill="#F0FAE0"/>
<path d="M339.458 257.977L339.01 257.507L339.238 257.269L339.458 257.499L339.922 257.014L340.15 257.253L339.458 257.977Z" fill="#67AC40"/>
<path d="M339.458 259.615L339.01 259.145L339.238 258.906L339.458 259.136L339.922 258.651L340.15 258.891L339.458 259.615Z" fill="#67AC40"/>
<path d="M339.458 261.114L339.01 260.644L339.238 260.404L339.458 260.635L339.922 260.149L340.15 260.389L339.458 261.114Z" fill="#67AC40"/>
<path d="M340.417 257.231H346.439V256.971H340.417V257.231Z" fill="#F0FAE0"/>
<path d="M340.417 257.724H346.439V257.464H340.417V257.724Z" fill="#F0FAE0"/>
<path d="M340.418 258.207H343.127V257.947H340.418V258.207Z" fill="#F0FAE0"/>
<path d="M336 263.995H337.255V262.68H336V263.995Z" fill="#F0FAE0"/>
<path d="M336.506 263.77L336.057 263.3L336.286 263.061L336.506 263.292L336.969 262.807L337.198 263.045L336.506 263.77Z" fill="#67AC40"/>
<path d="M337.465 263.024H343.488V262.764H337.465V263.024Z" fill="#67AC40"/>
<path d="M337.465 263.517H343.488V263.257H337.465V263.517Z" fill="#67AC40"/>
<path d="M337.465 264H340.175V263.74H337.465V264Z" fill="#67AC40"/>
<path d="M340.417 258.775H346.439V258.514H340.417V258.775Z" fill="#F0FAE0"/>
<path d="M340.417 259.267H346.439V259.007H340.417V259.267Z" fill="#F0FAE0"/>
<path d="M340.418 259.751H343.127V259.491H340.418V259.751Z" fill="#F0FAE0"/>
<path d="M340.417 260.345H346.439V260.085H340.417V260.345Z" fill="#F0FAE0"/>
<path d="M340.417 260.838H346.439V260.578H340.417V260.838Z" fill="#F0FAE0"/>
<path d="M340.418 261.321H343.127V261.061H340.418V261.321Z" fill="#F0FAE0"/>
</g>
</g>
<defs>
<clipPath id="clip0_29_1143">
<rect width="589" height="413" fill="white"/>
</clipPath>
<clipPath id="clip1_29_1143">
<rect width="11" height="8" fill="white" transform="translate(336 256)"/>
</clipPath>
</defs>
</svg>
