<svg width="569" height="490" viewBox="0 0 569 490" fill="none" xmlns="http://www.w3.org/2000/svg">
<g clip-path="url(#clip0_29_1368)">
<path d="M300.772 43.4554H27.8737C13.8979 43.4554 2.56824 54.7899 2.56824 68.7716V462.097C2.56824 476.079 13.8979 487.414 27.8737 487.414H300.772C314.748 487.414 326.078 476.079 326.078 462.097V68.7716C326.078 54.7899 314.748 43.4554 300.772 43.4554Z" fill="#F1EFF6" stroke="#FF9F1C" stroke-width="3" stroke-miterlimit="10"/>
<path d="M284.147 61.3549H45.7485C38.0514 61.3549 31.8116 67.5973 31.8116 75.2977V434.366C31.8116 442.066 38.0514 448.309 45.7485 448.309H284.147C291.845 448.309 298.084 442.066 298.084 434.366V75.2977C298.084 67.5973 291.845 61.3549 284.147 61.3549Z" fill="#F4F4F4"/>
<path d="M298.084 68.4119C298.307 212.875 302.467 383.031 287.691 430.084C287.28 431.4 286.488 432.565 285.416 433.431C284.343 434.297 283.038 434.825 281.665 434.948C210.131 441.697 127.178 444.009 39.5847 444.523C38.5978 444.528 37.6209 444.325 36.7172 443.929C35.8134 443.532 35.0029 442.95 34.3381 442.22C33.6733 441.491 33.1689 440.63 32.8576 439.693C32.5462 438.756 32.4349 437.764 32.5307 436.781L66.2942 68.8915C66.4557 67.1466 67.2604 65.5243 68.5516 64.3402C69.8428 63.1561 71.5282 62.4949 73.2797 62.4854L291.064 61.3892C292.926 61.3892 294.712 62.1291 296.028 63.4461C297.345 64.7631 298.084 66.5494 298.084 68.4119Z" fill="#E2E2E2"/>
<path d="M267.317 423.592C163.938 439.676 91.5312 441.611 32.5308 438.203C30.6745 438.095 28.8587 437.617 27.1901 436.796C25.5215 435.975 24.0339 434.829 22.815 433.424C21.596 432.02 20.6703 430.385 20.0924 428.617C19.5145 426.849 19.2961 424.983 19.45 423.13C26.504 338.034 29.6372 207.257 32.6506 75.0236C32.7313 71.3781 34.2381 67.9096 36.8472 65.3634C39.4564 62.8172 42.9597 61.3964 46.6046 61.4063L172.687 61.6804H173.56L287.127 69.1827C290.621 69.4107 293.901 70.9478 296.312 73.4875C298.724 76.0272 300.09 79.383 300.139 82.8857C301.748 221.919 301.337 349.425 278.343 414.514C277.495 416.881 276.022 418.975 274.081 420.573C272.14 422.171 269.802 423.214 267.317 423.592Z" fill="white"/>
<path d="M233.066 100.336L92.9825 97.0336L92.4795 118.387L232.562 121.69L233.066 100.336Z" fill="#67AC40"/>
<path d="M260.057 152.587L133.702 149.608L133.471 159.386L259.827 162.365L260.057 152.587Z" fill="#67AC40"/>
<path d="M219.776 172.191L133.877 170.473L133.682 180.253L219.58 181.972L219.776 172.191Z" fill="#CBDDB1"/>
<path d="M93.8889 149.248L63.986 148.543L63.2813 178.458L93.1842 179.163L93.8889 149.248Z" fill="white" stroke="#67AC40" stroke-width="6" stroke-miterlimit="10"/>
<path d="M236.497 206.451L132.444 203.998L132.214 213.776L236.266 216.229L236.497 206.451Z" fill="#67AC40"/>
<path d="M258.275 228.284L131.92 225.305L131.689 235.083L258.045 238.062L258.275 228.284Z" fill="#CBDDB1"/>
<path d="M92.6081 203.637L62.7053 202.932L62.0006 232.848L91.9034 233.553L92.6081 203.637Z" fill="white" stroke="#67AC40" stroke-width="6" stroke-miterlimit="10"/>
<path d="M257.512 261.384L131.157 258.405L130.927 268.183L257.282 271.162L257.512 261.384Z" fill="#67AC40"/>
<path d="M187.143 281.028L130.641 279.695L130.411 289.473L186.913 290.805L187.143 281.028Z" fill="#CBDDB1"/>
<path d="M91.3444 258.044L61.4416 257.339L60.7369 287.255L90.6397 287.96L91.3444 258.044Z" fill="white" stroke="#67AC40" stroke-width="6" stroke-miterlimit="10"/>
<path d="M256.232 315.79L129.876 312.811L129.646 322.589L256.001 325.568L256.232 315.79Z" fill="#67AC40"/>
<path d="M229.173 336.455L129.365 334.102L129.135 343.88L228.942 346.233L229.173 336.455Z" fill="#CBDDB1"/>
<path d="M90.0465 312.451L60.1437 311.746L59.439 341.661L89.3418 342.366L90.0465 312.451Z" fill="white" stroke="#67AC40" stroke-width="6" stroke-miterlimit="10"/>
<path d="M178.693 367.989L128.609 366.808L128.379 376.586L178.462 377.767L178.693 367.989Z" fill="#67AC40"/>
<path d="M254.459 391.082L128.103 388.102L127.88 397.865C176.762 399.012 238.998 401.291 251.702 399.355C252.703 398.238 253.464 396.928 253.938 395.504C254.412 394.081 254.59 392.576 254.459 391.082Z" fill="#CBDDB1"/>
<path d="M89.203 366.457L59.3001 365.752L58.5954 395.667L88.4983 396.372L89.203 366.457Z" fill="white" stroke="#67AC40" stroke-width="6" stroke-miterlimit="10"/>
<path d="M224.291 46.1446V76.0171H104.441V46.1446C104.44 43.8795 104.886 41.6364 105.753 39.5438C106.619 37.4511 107.89 35.5499 109.492 33.949C109.872 33.5571 110.278 33.1909 110.707 32.8528C113.758 30.3155 117.595 28.917 121.562 28.8961C124.614 28.8955 127.627 28.2107 130.38 26.892C131.546 26.3273 132.658 25.6565 133.701 24.888C137.22 22.2964 139.808 18.6379 141.081 14.4566C142.347 10.2702 144.927 6.60334 148.44 3.99939C151.952 1.39544 156.21 -0.0069792 160.582 -4.62848e-06H168.064C172.434 0.00120536 176.688 1.40676 180.199 4.00952C183.71 6.61227 186.292 10.2745 187.565 14.4566C188.829 18.6332 191.405 22.2911 194.91 24.888C195.954 25.6565 197.066 26.3273 198.232 26.892C200.985 28.2107 203.998 28.8955 207.05 28.8961C211.621 28.9006 216.004 30.7193 219.236 33.9531C222.468 37.1868 224.286 41.5714 224.291 46.1446Z" fill="#FF9F1C"/>
<path d="M234.033 61.3549V83.5537H94.613V61.3549H104.355V76.0171H224.291V61.3549H234.033Z" fill="#E2E2E2"/>
<path d="M164.332 28.0225C170.204 28.0225 174.964 23.4903 174.964 17.8995C174.964 12.3087 170.204 7.77643 164.332 7.77643C158.459 7.77643 153.699 12.3087 153.699 17.8995C153.699 23.4903 158.459 28.0225 164.332 28.0225Z" fill="white"/>
<path d="M519.875 140.232C515.629 139.427 511.657 132.319 510.27 129.578C509.935 128.912 509.827 128.154 509.962 127.42L511.674 118.445C511.674 118.445 515.578 119.113 515.27 124.32C515.257 124.858 515.35 125.393 515.544 125.896L517.05 129.818L521.468 126.392L519.036 119.541C517.442 120.006 515.768 120.129 514.123 119.901C510.698 118.804 515.184 116.115 516.622 115.824C518.06 115.533 521.177 114.402 522.615 116.835C524.053 119.267 524.892 120.671 524.892 120.671C524.892 120.671 526.467 115.259 525.388 103.132C525.388 102.584 526.707 102.601 527.101 102.978C528.265 104.159 530.08 107.722 530.182 118.548C530.182 118.548 530.371 105.924 532.545 104.622C534.257 103.56 535.216 109.761 533.966 120.209C533.966 120.209 536.295 111.131 537.956 111.114C540.764 111.114 537.956 135.334 530.936 142.562L519.875 140.232Z" fill="#E6B084"/>
<path d="M533.213 136.516C533.093 137.732 532.956 138.896 532.802 139.941C532.376 143.568 531.759 147.17 530.953 150.732C530.953 150.886 530.953 151.023 530.85 151.161C528.693 159.965 528.316 164.281 520.971 163.151L513.421 154.586L512.873 153.97L514.397 149.431L514.602 148.848L515.732 145.559L515.869 145.131L517.804 139.462L518.574 137.166L533.213 136.516Z" fill="#E6B084"/>
<path d="M392.988 449.474L391.071 455.469C377.887 459.802 370.2 464.769 369.72 470.559H407.816L410.915 450.484C404.979 452.014 398.715 451.661 392.988 449.474Z" fill="#67AC40"/>
<path d="M397.765 434.537L392.988 449.474C398.715 451.661 404.979 452.014 410.915 450.484L412.884 437.518L397.765 434.537Z" fill="#E6B084"/>
<path d="M462.895 448.771L464.008 433.561L446.116 434.503L445.14 448.514C450.89 450.431 457.092 450.521 462.895 448.771Z" fill="#E6B084"/>
<path d="M484.434 470.559C483.937 464.769 477.209 456.856 462.45 454.955L462.895 448.806C457.092 450.555 450.89 450.465 445.14 448.549L443.599 470.559H484.434Z" fill="#67AC40"/>
<path d="M448.393 144.138L426.803 144.275V111.61H447.743V113.615L447.845 123.96L448 140.592L448.393 144.138Z" fill="#E6B084"/>
<path d="M447.846 125.536C443.976 129.613 433.84 125.005 429.577 120.517L447.76 115.19L447.846 125.536Z" fill="#CC896E"/>
<path d="M452.862 104.074C452.869 106.534 452.681 108.992 452.297 111.422C451.236 118.017 448.462 123.703 442.024 123.875C426.82 124.32 422.489 115.619 419.629 108.459C416.77 101.299 421.341 84.2046 421.341 84.2046L441.014 82.269L451.818 91.1245C452.516 95.4055 452.866 99.7362 452.862 104.074Z" fill="#E6B084"/>
<path d="M420.246 104.485C420.246 104.485 424.577 104.297 425.382 93.0943C433.138 95.6979 438.805 93.317 443.291 88.1613C444.481 89.6775 446.068 90.8325 447.877 91.4968C449.685 92.1612 451.643 92.3087 453.531 91.9229C455.418 91.537 457.161 90.633 458.564 89.3122C459.967 87.9914 460.975 86.3058 461.474 84.4444C464.077 76.9591 456.869 65.8084 446.339 72.5571C436.066 67.4185 420.4 67.7097 415.897 80.4876C415.897 80.4876 400.265 87.6988 416.821 103.594C417.934 103.993 419.08 104.291 420.246 104.485Z" fill="#0C0C0C"/>
<path d="M480.034 261.538L468.1 442.074H440.055L447.058 266.899L451.355 264.912L480.034 261.538Z" fill="#0C0C0C"/>
<path d="M406.977 236.838L387.304 442.074H417.866L446.955 271.609L480.034 261.555L481.489 225.122L407.816 223.444L406.977 236.838Z" fill="#0C0C0C"/>
<path opacity="0.6" d="M411.36 237.301C428.053 243.296 467.227 236.444 475.36 228.085L469.573 216.524L405.162 225.088L411.36 237.301Z" fill="#1C2548"/>
<path d="M473.853 225.293C473.305 225.533 472.757 225.773 472.141 225.979C465.382 228.721 458.376 230.809 451.218 232.213C446.593 233.129 441.906 233.702 437.196 233.926C429.807 234.374 422.392 233.798 415.161 232.213L424.612 144.874L425.759 134.237C425.759 134.237 438.001 149.311 451.441 132.662L473.853 225.293Z" fill="white"/>
<path d="M437.247 233.926C429.858 234.374 422.443 233.798 415.212 232.213L424.612 144.874L428.036 140.044C436.152 160.119 444.61 204.585 437.247 233.926Z" fill="#A2C472"/>
<path d="M426.803 130.777C436.117 170.293 439.935 210.957 426.238 256.108C416.068 259.979 405.008 259.928 393.16 256.536L396.087 174.438L306.029 221.953L302.947 206.743C329.468 181.393 395.283 132.336 426.803 130.777Z" fill="#67AC40"/>
<path d="M472.192 225.979C465.433 228.721 458.427 230.809 451.27 232.213C447.109 208.37 446.133 169.18 449.558 151.503L472.192 225.979Z" fill="#A2C472"/>
<path opacity="0.6" d="M530.953 150.732C530.953 150.886 530.953 151.024 530.85 151.161C528.693 159.965 528.316 164.281 520.971 163.151L513.421 154.586L514.397 149.448L514.602 148.865L515.732 145.577L515.869 145.148L530.953 150.732Z" fill="#CC896E"/>
<path d="M529.635 158.731C529.635 158.731 511.109 197.99 500.117 198.932C489.468 199.857 484.434 189.512 484.434 189.512L491.967 246.893C482.774 251.431 472.369 252.902 462.279 251.089C452.331 218.733 448.582 176.888 447.811 130.298C455.875 130.812 471.781 131.497 477.568 135.18C487.841 141.774 500.494 165.326 500.494 165.326L515.253 145.234L529.635 158.731Z" fill="#67AC40"/>
<path d="M422.523 102.549C422.335 101.864 419.27 100.939 418.585 100.837C417.551 100.459 416.417 100.459 415.383 100.837C411.685 102.549 412.182 107.825 414.099 110.617C415.179 112.219 416.784 113.394 418.636 113.94C419.304 114.145 425.69 114.214 425.485 113.186C425.399 113.135 422.523 102.567 422.523 102.549Z" fill="#E6B084"/>
<path d="M305.772 209.312C305.556 208.594 305.198 207.926 304.719 207.348C304.241 206.771 303.651 206.295 302.985 205.95C302.319 205.605 301.59 205.398 300.843 205.34C300.095 205.282 299.343 205.374 298.632 205.613C293.958 207.24 289.883 209.98 289.25 214.639C288.685 218.87 290.808 232.436 300.276 234.183L299.505 227.212C299.505 227.212 305.309 225.859 306.474 223.341C307.278 221.577 307.33 214.228 305.772 209.312Z" fill="#E6B084"/>
<path d="M481.523 162.722C482.02 165.686 482.448 168.666 482.859 171.629C483.27 174.593 483.612 177.607 483.989 180.588L484.965 189.546C485.256 192.526 485.53 195.524 485.718 198.521H485.222C484.708 195.558 484.297 192.578 483.886 189.597L482.756 180.656C482.448 177.676 482.088 174.678 481.797 171.698C481.506 168.717 481.249 165.703 481.044 162.705L481.523 162.722Z" fill="#6A8E38"/>
<path d="M397.063 162.209C397.063 165.532 397.063 168.854 396.875 172.195C396.687 175.535 396.618 178.841 396.498 182.163L395.95 192.132C395.728 195.455 395.505 198.778 395.18 202.101H394.701C394.701 198.778 394.701 195.438 394.855 192.115L395.266 182.146C395.454 178.823 395.591 175.5 395.831 172.177C396.07 168.854 396.276 165.532 396.584 162.209H397.063Z" fill="#6A8E38"/>
<path d="M437.761 102.224C438.018 103.423 437.538 104.536 436.665 104.725C435.792 104.913 434.953 104.125 434.611 103.012C434.268 101.899 434.833 100.699 435.706 100.511C436.58 100.323 437.487 101.059 437.761 102.224Z" fill="#1C2548"/>
<path d="M450.294 100.768C450.294 101.984 449.489 102.926 448.582 102.892C447.674 102.858 447.006 101.847 447.058 100.631C447.109 99.4148 447.88 98.4728 448.77 98.507C449.66 98.5413 450.294 99.5519 450.294 100.768Z" fill="#1C2548"/>
<path d="M443.291 101.761C443.57 102.752 443.788 103.759 443.942 104.776C444.046 105.171 444.253 105.532 444.541 105.821C444.904 106.073 445.302 106.269 445.722 106.403C446.315 106.624 446.832 107.011 447.212 107.517C447.429 107.81 447.558 108.159 447.585 108.522C447.613 108.886 447.537 109.25 447.366 109.572C447.05 110.073 446.63 110.5 446.133 110.823C445.705 111.114 445.294 111.422 444.849 111.679L444.524 111.319C444.849 110.908 445.209 110.548 445.568 110.155C445.897 109.851 446.17 109.492 446.373 109.093C446.63 108.51 446.065 107.876 445.243 107.551C444.677 107.376 444.157 107.077 443.719 106.677C443.271 106.21 442.988 105.608 442.914 104.965C442.829 103.928 442.8 102.887 442.829 101.847L443.291 101.761Z" fill="#CC896E"/>
<path d="M431.768 99.0551C431.967 98.2747 432.419 97.5821 433.053 97.0853C433.703 96.5706 434.501 96.2766 435.33 96.246C436.133 96.2007 436.932 96.3863 437.633 96.7809C438.334 97.1755 438.907 97.7626 439.285 98.4727L438.908 98.7639C437.923 97.9305 436.671 97.4805 435.381 97.4964C434.757 97.5175 434.146 97.6832 433.596 97.9804C433.046 98.2776 432.573 98.6982 432.214 99.2093L431.768 99.0551Z" fill="#1C2548"/>
<path d="M444.729 97.5135C444.923 96.9085 445.265 96.3611 445.722 95.9206C446.19 95.4608 446.788 95.1559 447.435 95.047C448.099 94.9349 448.782 95.0413 449.38 95.3501C449.979 95.6589 450.462 96.1535 450.756 96.7599L450.362 97.0511C449.571 96.4782 448.594 96.2216 447.623 96.3317C447.154 96.3932 446.704 96.5569 446.305 96.8113C445.868 97.1015 445.46 97.4342 445.089 97.8047L444.729 97.5135Z" fill="#1C2548"/>
<path d="M437.778 113.94C439.97 117.366 442.915 117.743 445.157 114.128L437.778 113.94Z" fill="white"/>
<path opacity="0.4" d="M452.931 103.234C452.915 105.975 452.704 108.712 452.297 111.422C451.534 111.181 450.868 110.701 450.397 110.054C449.925 109.407 449.673 108.626 449.678 107.825C449.675 106.816 449.987 105.832 450.57 105.009C451.153 104.186 451.978 103.566 452.931 103.234Z" fill="#E18679"/>
<path opacity="0.4" d="M432.436 114.128C434.677 114.128 436.494 112.311 436.494 110.069C436.494 107.827 434.677 106.009 432.436 106.009C430.195 106.009 428.378 107.827 428.378 110.069C428.378 112.311 430.195 114.128 432.436 114.128Z" fill="#E18679"/>
<path d="M419.869 106.575C419.14 106.034 418.379 105.536 417.592 105.084C417.287 104.918 416.946 104.829 416.599 104.827C416.215 104.893 415.855 105.059 415.554 105.307L415.144 105.05C415.225 104.755 415.377 104.485 415.586 104.261C415.794 104.037 416.054 103.867 416.342 103.766C416.642 103.673 416.959 103.643 417.271 103.678C417.583 103.714 417.885 103.813 418.157 103.971C419.095 104.482 419.832 105.298 420.246 106.283L419.869 106.575Z" fill="#CC896E"/>
<path opacity="0.6" d="M306.474 223.341L300.635 241.052L299.437 227.212C302.153 226.755 304.633 225.39 306.474 223.341Z" fill="#63372D"/>
</g>
<path d="M447.678 14.0091C447.569 14.3234 447.442 14.6313 447.299 14.9314C446.977 15.6276 446.604 16.2994 446.184 16.9417C444.432 19.4319 442.252 21.5936 439.744 23.3271C437.511 24.9903 435.16 26.4919 432.712 27.8206C430.266 26.4864 427.917 24.985 425.679 23.3271C423.151 21.5749 420.952 19.3936 419.18 16.8826C419.098 16.7647 419.023 16.6423 418.955 16.516C418.765 16.2218 418.591 15.9179 418.433 15.6055C417.141 13.2799 416.626 10.604 416.963 7.96657C417.154 6.43463 417.776 4.98813 418.759 3.79505C419.741 2.60196 421.043 1.71125 422.513 1.22636C428.099 -0.18081 432 5.73165 432.629 8.75884C433.281 5.68435 437.183 -0.22811 442.828 1.22636C444.3 1.70748 445.604 2.5971 446.587 3.7909C447.57 4.9847 448.191 6.4332 448.378 7.96657C448.681 10.0071 448.439 12.091 447.678 14.0091Z" fill="#63AA3C"/>
<path d="M447.678 14.0091C447.569 14.3234 447.442 14.6313 447.299 14.9315H443.433L442.401 17.4975C442.369 17.5788 442.313 17.6489 442.242 17.6993C442.17 17.7497 442.085 17.7782 441.998 17.7813C441.906 17.7755 441.818 17.7418 441.746 17.6847C441.674 17.6276 441.621 17.5499 441.594 17.462C441.393 16.8471 440.907 15.3217 440.563 14.1155C440.148 15.6173 440.1 15.7356 439.732 15.7474C439.612 15.7403 439.498 15.6899 439.412 15.6055C438.965 14.4946 438.632 13.3418 438.416 12.1644C438.155 13.0868 437.835 14.2929 437.527 15.4163C437.505 15.5101 437.452 15.594 437.377 15.6541C437.302 15.7142 437.208 15.7471 437.112 15.7474H434.36L433.079 20.2172C433.059 20.3163 433.004 20.4047 432.923 20.4657C432.842 20.5267 432.742 20.5561 432.641 20.5483C432.54 20.541 432.445 20.4994 432.372 20.4305C432.298 20.3616 432.251 20.2696 432.237 20.1699L431.051 13.075C430.494 16.2913 429.925 19.7442 429.866 20.0517C429.86 20.1571 429.821 20.2581 429.756 20.3407C429.69 20.4234 429.6 20.4835 429.498 20.5128H429.356C429.035 20.5128 428.857 20.0753 427.648 16.5278H426.237C426.147 16.5271 426.059 16.4982 425.987 16.4451C425.915 16.392 425.861 16.3175 425.833 16.2322L424.742 13.1577L423.556 16.244C423.527 16.3271 423.472 16.3991 423.4 16.4499C423.328 16.5008 423.242 16.528 423.153 16.5278H418.848C418.658 16.2336 418.484 15.9297 418.326 15.6173H422.857L424.339 11.7151C424.368 11.6307 424.422 11.5572 424.494 11.5043C424.566 11.4515 424.653 11.4219 424.742 11.4195C424.832 11.4259 424.918 11.4585 424.99 11.5131C425.062 11.5677 425.116 11.642 425.146 11.7269L426.521 15.6173H427.921C428.012 15.6173 428.101 15.6458 428.176 15.6988C428.25 15.7518 428.306 15.8267 428.336 15.9129C428.632 16.7762 428.94 17.6748 429.213 18.3962C429.569 16.1967 430.233 12.3418 430.565 10.367C430.582 10.2625 430.635 10.1673 430.715 10.0981C430.796 10.0289 430.898 9.9901 431.004 9.98864C431.109 9.99051 431.209 10.0297 431.288 10.0991C431.366 10.1685 431.417 10.2635 431.431 10.367L432.712 18.0532L433.542 15.1088C433.568 15.0162 433.624 14.9348 433.701 14.877C433.778 14.8193 433.872 14.7886 433.969 14.7896H436.708C438.001 9.9177 438.001 9.90587 438.464 9.97682C438.573 9.99671 438.672 10.0555 438.742 10.1425C438.812 10.2294 438.848 10.3386 438.843 10.4498C438.843 10.7336 439.317 12.531 439.661 13.7963C439.661 13.7963 439.661 13.7963 439.661 13.7253C440.124 12.0698 440.171 11.8925 440.61 11.9516C440.728 11.9794 440.832 12.0482 440.904 12.1457C440.976 12.2433 441.01 12.3631 441.001 12.4837C441.25 13.6855 441.575 14.8704 441.974 16.0312L442.662 14.3047C442.694 14.2235 442.749 14.1533 442.821 14.1029C442.893 14.0525 442.977 14.024 443.065 14.0209L447.678 14.0091Z" fill="white"/>
<path d="M548.174 80.9737C552.36 83.2559 556.214 86.4723 558.254 90.7884C560.294 95.1045 560.164 100.615 557.068 104.269C558.042 104.771 559.099 105.096 560.187 105.227C558.087 106.065 555.855 106.525 553.594 106.586C550.791 106.71 548.041 105.796 545.873 104.02C541.248 99.9881 541.722 92.6449 538.592 87.3828C536.706 84.2255 533.397 81.3875 533.848 77.7336C533.943 76.963 534.211 76.2235 534.631 75.5697C535.105 75.7589 535.639 75.8771 536.089 76.0072C540.289 77.2119 544.342 78.8776 548.174 80.9737Z" fill="#789E2D"/>
<path d="M547.178 74.0916C549.55 75.4041 551.72 77.1424 554.009 78.6323C558.681 81.6595 564.303 83.9181 566.935 88.8018C567.68 90.2021 568.131 91.7386 568.261 93.318C568.392 94.8975 568.199 96.4869 567.694 97.9897C567.051 99.6628 566.051 101.176 564.763 102.426C563.475 103.675 561.93 104.631 560.235 105.227C559.146 105.096 558.09 104.771 557.116 104.269C560.164 100.615 560.282 95.0926 558.302 90.7884C556.321 86.4841 552.372 83.2559 548.221 80.9737C544.375 78.8744 540.306 77.2086 536.089 76.0072C535.639 75.8771 535.105 75.7589 534.631 75.5697C535.161 74.7478 535.857 74.0442 536.673 73.5029C537.489 72.9617 538.409 72.5944 539.374 72.4242C542.089 72.0932 544.837 72.6803 547.178 74.0916Z" fill="#3F770E"/>
<path d="M547.427 75.6406C549.597 76.8231 551.53 78.3959 553.606 79.7439C557.827 82.4873 562.927 84.5448 565.311 88.9673C565.982 90.2287 566.388 91.6134 566.504 93.0366C566.62 94.4598 566.444 95.8917 565.987 97.2448C564.682 101.017 561.243 103.358 557.472 104.34C556.084 104.722 554.654 104.933 553.214 104.966C550.673 105.063 548.186 104.221 546.229 102.601C542.043 98.9476 542.47 92.2901 539.635 87.5247C537.928 84.6749 534.892 82.0971 535.307 78.7861C535.446 77.7554 535.901 76.793 536.611 76.0309C537.587 74.9723 538.881 74.2585 540.299 73.997C542.793 73.7232 545.307 74.3028 547.427 75.6406Z" fill="#E2EA94"/>
<path d="M547.427 75.6406C549.597 76.8231 551.53 78.3958 553.606 79.7439C557.828 82.4873 562.927 84.5448 565.311 88.9673C565.982 90.2287 566.388 91.6134 566.504 93.0366C566.621 94.4598 566.444 95.8917 565.987 97.2448C564.682 101.017 561.243 103.358 557.472 104.34C557.35 104.292 557.231 104.236 557.116 104.174C560.164 100.52 560.282 94.9981 558.302 90.6938C556.321 86.3895 552.372 83.1613 548.222 80.8791C544.549 78.8748 540.673 77.2654 536.659 76.0782C537.635 75.0196 538.929 74.3058 540.347 74.0443C542.82 73.7674 545.314 74.3298 547.427 75.6406Z" fill="#D0D65F"/>
<path d="M555.764 85.9165C557.254 86.4462 558.521 87.4603 559.363 88.7957C560.204 90.131 560.571 91.7098 560.403 93.278C560.235 94.8461 559.543 96.3123 558.437 97.4404C557.332 98.5686 555.879 99.2931 554.31 99.4974C552.742 99.7016 551.15 99.3736 549.792 98.5663C548.433 97.7589 547.386 96.5192 546.82 95.0466C546.254 93.5741 546.202 91.9544 546.671 90.4484C547.14 88.9424 548.104 87.6376 549.407 86.7443C550.325 86.113 551.38 85.7087 552.485 85.5647C553.591 85.4208 554.715 85.5414 555.764 85.9165Z" fill="#B55018"/>
<path d="M555.764 85.9165C556.85 86.3023 557.823 86.9492 558.598 87.7997C559.373 88.6503 559.926 89.6782 560.207 90.7926C560.489 91.907 560.49 93.0735 560.212 94.1886C559.933 95.3037 559.383 96.3331 558.61 97.1856C558.564 97.0104 558.529 96.8328 558.503 96.6535C558.162 94.3484 556.99 92.2464 555.207 90.741C554.011 89.853 552.66 89.1953 551.222 88.8018C550.344 88.4943 549.206 87.8439 549.384 86.7442C550.303 86.1064 551.362 85.6983 552.473 85.5543C553.583 85.4102 554.712 85.5344 555.764 85.9165Z" fill="#9B2C05"/>
<path d="M351.986 43.0984C354.884 45.4484 358.6 46.5543 362.316 46.1729C366.033 45.7915 369.445 43.954 371.802 41.0646C372.752 39.9119 373.509 38.6142 374.044 37.2214L374.115 37.0441C374.323 36.4714 374.497 35.8871 374.637 35.294C375.338 32.2025 374.971 28.9652 373.594 26.1084C372.217 23.2515 369.911 20.943 367.052 19.5579C364.193 18.1728 360.948 17.7926 357.844 18.479C354.741 19.1655 351.961 20.8782 349.958 23.339C349.52 23.8761 349.124 24.4453 348.772 25.0418C347.054 27.9376 346.434 31.3512 347.023 34.6638C347.613 37.9764 349.373 40.9688 351.986 43.0984Z" fill="#FF7300"/>
<path d="M352.887 22.4403C352.936 22.3734 352.962 22.2926 352.962 22.2097C352.962 22.1268 352.936 22.046 352.887 21.9791C351.916 20.5372 351.424 18.8272 351.481 17.0912C351.539 15.3552 352.142 13.6813 353.207 12.3063C353.27 12.2279 353.299 12.1278 353.288 12.028C353.277 11.9282 353.226 11.8369 353.148 11.7742C353.069 11.7115 352.969 11.6825 352.869 11.6936C352.768 11.7047 352.677 11.7549 352.614 11.8333C351.44 13.3448 350.774 15.1867 350.71 17.0972C350.647 19.0077 351.188 20.8897 352.258 22.4758C352.287 22.5173 352.323 22.5528 352.366 22.5801C352.408 22.6074 352.455 22.626 352.505 22.6348C352.555 22.6437 352.606 22.6425 352.655 22.6314C352.704 22.6203 352.751 22.5996 352.792 22.5704L352.887 22.4403Z" fill="#3F770E"/>
<path d="M346.459 15.771C344.815 15.8532 343.245 16.4818 342 17.5566C343.814 18.7391 345.676 19.6259 348.191 18.7982C349.068 18.5144 351.12 17.5447 351.12 17.5447C349.794 16.4757 348.162 15.8546 346.459 15.771Z" fill="#3F770E"/>
<path d="M351.985 43.0984C354.884 45.4484 358.6 46.5543 362.316 46.1729C366.032 45.7915 369.445 43.954 371.802 41.0645C372.752 39.9119 373.508 38.6142 374.044 37.2214L374.115 37.0441C358.769 46.0901 350.966 33.0117 348.748 25.0417C347.033 27.9402 346.416 31.3556 347.01 34.6684C347.604 37.9811 349.369 40.972 351.985 43.0984Z" fill="#EF5306"/>
<path d="M526.187 29.3815C525.922 30.2117 525.556 31.006 525.096 31.7465C523.359 33.5668 521.448 35.2142 519.391 36.6657L518.87 37.0796L518.799 37.1387L518.289 37.5171C518.04 37.7181 517.779 37.9073 517.506 38.1083C515.964 39.2908 514.28 40.4733 512.537 41.6558L511.469 42.389L510.734 42.9093C508.647 44.3164 506.536 45.6763 504.555 46.847L503.121 47.6629L502.397 48.0649C497.653 50.6428 494.096 51.7307 494.096 49.2474V49.07C494.146 48.5128 494.254 47.9621 494.416 47.4264C494.499 47.1544 494.594 46.8706 494.712 46.575C494.831 46.2794 495.092 45.6408 495.329 45.1323C496.748 42.2479 498.393 39.4801 500.251 36.8549C500.44 36.5593 500.654 36.2636 500.855 35.9798L501.626 34.8801C501.626 34.8801 501.626 34.8801 501.697 34.8092C502.694 33.4138 503.737 32.0303 504.781 30.7059L505.303 30.0556L506.275 28.8731C507.912 26.8865 509.489 25.1127 510.853 23.7056L511.754 22.8187C512.039 22.5467 512.3 22.3102 512.549 22.0974C513.086 21.5779 513.688 21.1289 514.339 20.7612C516.534 19.7262 519.022 19.4918 521.372 20.099C522.373 20.3195 523.311 20.7599 524.119 21.3879C524.928 22.0159 525.585 22.8157 526.045 23.7292C526.807 25.5276 526.858 27.5473 526.187 29.3815Z" fill="#FF7300"/>
<path d="M536.232 22.4757C535.055 22.8086 533.816 22.8612 532.615 22.6295C531.559 22.2629 530.848 21.2814 529.875 20.7256C528.816 20.2511 527.643 20.091 526.495 20.2645C527.053 19.011 528.867 19.082 529.982 18.2779C532.354 16.7288 531.381 12.5428 533.634 10.8282C532.449 10.5326 531.369 11.6205 530.836 12.7083C530.468 13.8733 529.834 14.9377 528.986 15.8183C527.986 16.301 526.946 16.6966 525.878 17.0008C525.161 17.4353 524.559 18.0355 524.123 18.7509C524.289 17.7221 525.309 16.7998 525.606 15.7355C526.495 13.0394 523.092 10.4025 523.768 7.64728C522.653 8.16757 522.499 9.68117 522.771 10.8755C523.209 12.0041 523.383 13.2172 523.281 14.423C523.009 15.5109 522.095 16.3031 521.633 17.3319C520.945 18.8573 521.396 22.8187 523.447 23.3626C523.606 23.4113 523.769 23.4469 523.934 23.469C524.053 23.5104 524.176 23.5381 524.301 23.5518C524.394 23.5959 524.495 23.6188 524.598 23.6188C524.7 23.6188 524.802 23.5959 524.894 23.5518C525.819 23.4454 526.958 23.0433 527.527 22.9487C528.879 22.7122 529.84 24.2022 531.085 24.7579C533.694 25.9404 536.659 22.7832 539.386 23.7174C538.936 22.6295 537.441 22.2865 536.232 22.4757Z" fill="#3F770E"/>
<path d="M523.424 22.2866C524.04 20.3827 524.479 18.2424 526.768 17.7458C527.722 17.5287 528.625 17.1269 529.424 16.5633C530.193 15.945 530.732 15.0872 530.954 14.1273C530.762 15.1049 530.248 15.991 529.496 16.6461C528.31 17.6512 526.744 17.7103 525.511 18.5144C524.277 19.3185 524.123 21.0331 523.424 22.2866Z" fill="#E2EA94"/>
<path d="M523.945 12.2235C525.452 14.7068 523.032 17.2373 522.985 19.7324C522.996 20.5937 523.144 21.4479 523.424 22.2629C523 21.4864 522.78 20.6161 522.783 19.7324C522.866 17.1782 525.333 14.7777 523.969 12.2235H523.945Z" fill="#E2EA94"/>
<path d="M536.066 23.3863C535.055 23.9576 533.896 24.2144 532.738 24.1238C531.58 24.0332 530.476 23.5993 529.567 22.8778C528.926 22.3122 528.171 21.8915 527.352 21.6445C526.533 21.3975 525.67 21.3302 524.823 21.447C524.541 21.4778 524.267 21.5661 524.021 21.7064C523.774 21.8468 523.558 22.0362 523.388 22.2629C523.547 22.0226 523.754 21.8183 523.998 21.6634C524.241 21.5086 524.514 21.4066 524.799 21.3642C525.657 21.2267 526.534 21.2749 527.371 21.5054C528.207 21.736 528.985 22.1436 529.65 22.7004C530.535 23.4131 531.608 23.8567 532.739 23.9783C533.87 24.0999 535.013 23.8944 536.03 23.3863H536.066Z" fill="#E2EA94"/>
<path d="M526.187 29.3815C525.922 30.2116 525.556 31.006 525.096 31.7465C523.359 33.5667 521.448 35.2142 519.391 36.6656L518.87 37.0795L518.799 37.1386L518.289 37.517C518.04 37.7181 517.779 37.9073 517.506 38.1083C515.964 39.2908 514.28 40.4733 512.537 41.6558L511.469 42.3889L510.734 42.9092C508.647 44.3164 506.536 45.6762 504.555 46.8469L503.121 47.6628L502.397 48.0649C497.653 50.6427 494.096 51.7306 494.096 49.2474C496.877 48.2603 499.501 46.8783 501.887 45.1441C508.92 40.5206 516.237 36.0035 521.704 29.618C526.282 24.2613 519.925 22.4521 521.396 20.0871C522.396 20.3077 523.335 20.748 524.143 21.376C524.952 22.004 525.609 22.8039 526.068 23.7174C526.826 25.5222 526.868 27.5467 526.187 29.3815Z" fill="#F45506"/>
<path d="M517.447 29.7718C514.838 29.0031 512.94 25.6567 511.719 22.9488C512.003 22.6768 512.264 22.4403 512.513 22.2274C512.72 22.7475 512.991 23.24 513.32 23.6937L517.447 29.7718Z" fill="#FF9F1C"/>
<path d="M506.263 41.8213C504.022 41.1591 502.124 38.3566 500.808 36.1454L501.579 35.0457C501.579 35.0457 501.579 35.0457 501.65 34.9747C501.792 35.2348 501.958 35.495 502.124 35.7433L506.263 41.8213Z" fill="#FF9F1C"/>
<path d="M519.368 36.7603C518.775 37.2214 518.929 37.115 518.265 37.6117C516.531 36.1051 515.165 34.2247 514.268 32.1131L519.368 36.7603Z" fill="#FF9F1C"/>
<path d="M526.187 29.3815C525.922 30.2117 525.556 31.006 525.096 31.7465C522.487 29.89 519.759 26.2124 519.344 23.3626L524.787 28.3173C525.205 28.7312 525.676 29.089 526.187 29.3815Z" fill="#FF9F1C"/>
<path d="M512.513 41.7977L511.446 42.5309C510.39 41.2774 508.955 39.823 508.754 38.3803L512.513 41.7977Z" fill="#FF9F1C"/>
<path d="M504.532 46.9888L503.097 47.8047C501.057 46.1138 498.65 43.6778 498.353 41.3956L503.785 46.3503C504.018 46.5808 504.268 46.7942 504.532 46.9888Z" fill="#FF9F1C"/>
<path d="M509.928 34.277C508.208 33.8041 506.536 31.8056 505.255 30.2211L506.228 29.0386C507.473 30.765 508.694 32.527 509.928 34.277Z" fill="#FF9F1C"/>
<defs>
<clipPath id="clip0_29_1368">
<rect width="539" height="490" fill="white"/>
</clipPath>
</defs>
</svg>
