<svg width="581" height="563" viewBox="0 0 581 563" fill="none" xmlns="http://www.w3.org/2000/svg">
<g clip-path="url(#clip0_4006_1041)">
<path d="M580.99 16.8693H420.309V188.01H580.99V16.8693Z" fill="#F1EFF6"/>
<path d="M420.309 16.8693V182.761H552.362L574.622 159.449V16.8693H420.309Z" fill="#E0E0E2"/>
<path d="M547.821 178.186H411V0H570.082V154.884L547.821 178.186Z" fill="#F1EFF6"/>
<path d="M570.082 154.884L545.768 151.315L547.821 178.186L570.082 154.884Z" fill="#F1EFF6"/>
<path d="M493.755 165.445H427.058C425.996 165.445 424.977 165.021 424.226 164.266C423.476 163.511 423.054 162.488 423.054 161.42V99.1718C423.054 98.1042 423.476 97.0803 424.226 96.3254C424.977 95.5705 425.996 95.1464 427.058 95.1464H493.755C494.818 95.1464 495.838 95.5702 496.59 96.3248C497.343 97.0794 497.767 98.1033 497.77 99.1718V161.42C497.767 162.489 497.343 163.512 496.59 164.267C495.838 165.022 494.818 165.445 493.755 165.445ZM427.058 97.6779C426.67 97.6806 426.299 97.8367 426.025 98.1123C425.75 98.388 425.595 98.7612 425.592 99.1511V161.399C425.591 161.594 425.628 161.786 425.701 161.966C425.774 162.146 425.882 162.31 426.018 162.448C426.154 162.586 426.316 162.695 426.495 162.77C426.673 162.844 426.865 162.883 427.058 162.883H493.755C493.949 162.884 494.14 162.847 494.319 162.774C494.498 162.7 494.661 162.592 494.798 162.455C494.936 162.318 495.044 162.155 495.119 161.976C495.193 161.796 495.231 161.604 495.231 161.41V99.1614C495.229 98.7698 495.072 98.3951 494.795 98.1191C494.519 97.8431 494.145 97.6882 493.755 97.6882L427.058 97.6779Z" fill="#E89E30"/>
<path d="M488.399 147.476V142.922H486.222V140.743H488.399V134.01H481.743V136.158H479.462V138.43H472.744V133.989H470.443V131.759H474.984V134.01H477.161V131.759H479.431V129.476H477.161V131.759H474.984V129.476H477.13V127.318H474.984V129.466H465.995V131.728H468.276V134.041H470.422V136.199H468.286V134.041H463.704V129.456H461.568V131.738H459.277V127.287H463.704C463.704 128.003 463.704 128.719 463.704 129.435H465.974C465.974 128.719 465.974 128.003 465.974 127.287H468.255V124.984H472.713V120.347H470.443V122.639H468.286V124.922H465.985V127.215H463.725V122.629H468.265V120.347H470.432V111.455H468.265V113.624H465.985V115.885H463.683V120.347H461.568V115.958H459.297V122.691H461.506V124.994H456.965V127.215H454.901V122.629H456.965V120.347H445.85V122.639H450.278V124.922H452.496V129.341H450.216V127.266H447.987V129.445H445.819V131.717H454.818V129.466H456.996V131.717H459.256V134.031H461.568V136.168H459.308V140.754H465.985V145.246H463.725V142.974H454.829V145.246H452.548V147.518H450.309V158.733H454.777V156.554H452.579V154.272H457.017V149.738H459.287V152.01H461.568V154.313H463.694V156.596H457.027V158.733H468.286V156.658H470.453V158.733H474.984V156.658H472.693V154.334H468.317V149.8H470.443V152.021H474.984V149.8H477.161V152.083H486.108V156.658H481.764V158.733H488.399V149.697H483.993V147.508H479.483V145.246H481.764V140.837H484.034V145.246H486.181V147.487L488.399 147.476ZM468.234 118.137H466.005V115.885H468.234V118.137ZM454.818 149.655H452.548V147.528H454.777L454.818 149.655ZM459.349 147.476V145.246H463.745V147.487L459.349 147.476ZM466.005 151.958H463.755V149.738H465.964L466.005 151.958ZM468.276 147.476H466.005V145.246H468.234L468.276 147.476ZM461.568 138.419V136.178H468.276V138.419H461.568ZM477.13 147.497H470.474V140.805H477.12L477.13 147.497ZM486.139 138.419H481.733V136.178H486.129L486.139 138.419Z" fill="#0C0C0C"/>
<path d="M488.399 102.398H472.754V118.147H488.399V102.398ZM486.108 115.885H475.035V104.681H486.129L486.108 115.885Z" fill="#0C0C0C"/>
<path d="M447.945 102.388H432.404V118.126H447.945V102.388ZM445.788 115.875H434.571V104.691H445.788V115.875Z" fill="#0C0C0C"/>
<path d="M432.393 158.733H447.935V142.984H432.393V158.733ZM434.571 145.246H445.788V156.523H434.571V145.246Z" fill="#0C0C0C"/>
<path d="M441.258 129.373V124.953H443.487V120.398H432.393V122.66H434.509V127.225H432.445V140.712H434.529V133.958H436.8V131.645H439.07V129.373H441.258ZM439.132 122.681H441.196V124.932H439.132V122.681ZM436.8 129.362H434.529V127.287H436.8V129.362Z" fill="#0C0C0C"/>
<path d="M454.818 142.922C454.818 142.206 454.818 141.49 454.818 140.764H456.965V131.759H454.829V136.178H452.558V134.103H445.809V131.759H439.111V136.23H441.237V134.155H443.539V136.23H450.216V138.544H443.539V140.847H450.278V145.246H452.527V142.953L454.818 142.922ZM452.579 138.502H454.818V140.754H452.579V138.502Z" fill="#0C0C0C"/>
<path d="M461.568 106.797V104.722H456.955V106.797H454.798V102.388H452.527V104.67H450.288V106.859H452.496V109.163H450.298V111.424H454.818V109.183H456.996V111.424H459.256V106.818L461.568 106.797Z" fill="#0C0C0C"/>
<path d="M470.391 109.111V102.388H468.265V104.66H466.005V109.131H461.568V111.424H459.277V113.499H463.735V111.424H468.245V109.111H470.391Z" fill="#0C0C0C"/>
<path d="M484.003 122.65H481.712V120.398H479.462V124.932H484.003V122.65Z" fill="#0C0C0C"/>
<path d="M486.191 127.256V129.331H488.399V124.901H484.024V127.215L486.191 127.256Z" fill="#0C0C0C"/>
<path d="M454.829 118.137H456.975V111.424H454.829V118.137Z" fill="#0C0C0C"/>
<path d="M450.288 113.634V118.147H452.496V113.634H450.288Z" fill="#0C0C0C"/>
<path d="M479.411 154.324H474.984V156.575H479.38L479.411 154.324Z" fill="#0C0C0C"/>
<path d="M477.161 120.347H474.984V124.891H477.13L477.161 120.347Z" fill="#0C0C0C"/>
<path d="M463.755 102.398V104.639H465.984V102.398H463.755Z" fill="#0C0C0C"/>
<path d="M474.984 127.225V124.943H472.734V127.225H474.984Z" fill="#0C0C0C"/>
<path d="M441.258 136.178V138.45H443.518V136.168L441.258 136.178Z" fill="#0C0C0C"/>
<path d="M481.722 133.989V131.759H479.452V134.041L481.722 133.989Z" fill="#0C0C0C"/>
<path d="M479.442 127.225V124.943H477.171V127.225H479.442Z" fill="#0C0C0C"/>
<path d="M483.972 129.456H481.733V131.697H483.972V129.456Z" fill="#0C0C0C"/>
<path d="M486.139 120.398H484.075V122.639H486.139V120.398Z" fill="#0C0C0C"/>
<path d="M439.122 140.712H441.237V138.471H439.122V140.712Z" fill="#0C0C0C"/>
<path d="M445.861 124.974V127.225H447.925V124.974H445.861Z" fill="#0C0C0C"/>
<path d="M474.983 142.974H472.744V145.246H474.983V142.974Z" fill="#0C0C0C"/>
<path d="M483.982 106.859H477.202V113.551H483.982V106.859Z" fill="#0C0C0C"/>
<path d="M443.487 106.859H436.8V113.551H443.456L443.487 106.859Z" fill="#0C0C0C"/>
<path d="M436.8 154.241H443.456V147.549H436.8V154.241Z" fill="#0C0C0C"/>
<path d="M561.547 16.8693H443.807V20.158H561.547V16.8693Z" fill="#0C0C0C"/>
<path d="M561.547 36.6746H423.054V39.9633H561.547V36.6746Z" fill="#0C0C0C"/>
<path d="M561.547 56.4695H423.054V59.7583H561.547V56.4695Z" fill="#0C0C0C"/>
<path d="M561.547 76.2748H423.054V79.5636H561.547V76.2748Z" fill="#0C0C0C"/>
<path d="M561.537 96.0801H509.287V99.3689H561.537V96.0801Z" fill="#0C0C0C"/>
<path d="M561.537 115.885H509.287V119.174H561.537V115.885Z" fill="#0C0C0C"/>
<path d="M561.537 135.691H509.287V138.98H561.537V135.691Z" fill="#0C0C0C"/>
<path d="M537.532 155.496H509.287V158.785H537.532V155.496Z" fill="#0C0C0C"/>
</g>
<g clip-path="url(#clip1_4006_1041)">
<path d="M302.957 441.772L168.635 441.152C160.875 441.114 153.447 437.998 147.983 432.488C142.52 426.978 139.467 419.526 139.497 411.768L140.93 75.129C140.947 71.283 141.722 67.478 143.211 63.9317C144.7 60.3854 146.874 57.1674 149.608 54.4619C152.343 51.7564 155.584 49.6165 159.147 48.1645C162.709 46.7125 166.523 45.977 170.371 46L304.693 46.6208C312.449 46.6587 319.873 49.7731 325.333 55.2797C330.794 60.7864 333.845 68.2348 333.815 75.9886L332.398 412.643C332.379 416.489 331.603 420.293 330.113 423.838C328.623 427.384 326.449 430.601 323.715 433.306C320.981 436.011 317.74 438.151 314.179 439.604C310.617 441.056 306.804 441.793 302.957 441.772Z" fill="#0C0C0C"/>
<path d="M304.454 58.2406L278.405 58.1132C277.554 58.1278 276.714 58.3097 275.933 58.6488C275.152 58.9878 274.446 59.4773 273.855 60.0892C273.263 60.7012 272.798 61.4236 272.486 62.2153C272.174 63.0069 272.021 63.8523 272.036 64.7031V69.4783C272.053 70.3297 271.901 71.176 271.59 71.9686C271.278 72.7611 270.813 73.4844 270.222 74.0968C269.63 74.7092 268.923 75.1986 268.141 75.5369C267.359 75.8752 266.518 76.0558 265.667 76.0682L214.954 75.7657C214.098 75.7513 213.255 75.5678 212.471 75.2257C211.687 74.8837 210.978 74.3899 210.386 73.7729C209.794 73.1559 209.33 72.4278 209.021 71.6306C208.712 70.8334 208.563 69.9829 208.585 69.1281V64.3529C208.606 63.4981 208.457 62.6477 208.148 61.8505C207.839 61.0533 207.375 60.3252 206.783 59.7082C206.191 59.0911 205.482 58.5974 204.698 58.2553C203.915 57.9133 203.071 57.7298 202.216 57.7153H193.06L170.371 57.6198C164.94 57.6071 159.726 59.7484 155.872 63.5739C152.018 67.3995 149.84 72.5969 149.815 78.026L148.429 406.611C148.404 412.034 150.533 417.246 154.348 421.102C158.163 424.958 163.353 427.142 168.778 427.176L302.83 427.797C305.521 427.809 308.188 427.292 310.679 426.274C313.17 425.256 315.436 423.758 317.348 421.864C319.26 419.971 320.78 417.72 321.821 415.239C322.863 412.758 323.405 410.097 323.418 407.407L324.819 78.806C324.84 73.381 322.708 68.1692 318.89 64.3138C315.072 60.4584 309.881 58.2743 304.454 58.2406Z" fill="white"/>
<path d="M126.584 254.949C126.584 254.949 126.122 233.285 133.16 221.092C137.063 214.597 140.153 207.648 142.363 200.4C142.363 200.4 149.13 149.018 142.363 138.21C135.596 127.402 117.588 121.56 114.96 121.895C112.333 122.229 97.1272 179.007 85.9815 190.021C78.0202 197.869 64.5657 252.72 54.9167 267.778C40.7934 289.856 55.1714 342.447 35.2524 393.956C30.7782 405.465 2.70681 500.142 -1.28075e-05 530.672C-2.70684 561.201 114.897 566.502 122.874 561.201C130.851 555.901 143.669 535.367 159.496 521.742C175.323 508.117 207.582 487.312 214.03 470.806C220.479 454.299 224.045 441.948 224.045 441.948H165.132C158.71 428.721 151.1 416.105 142.395 404.255V271.869C142.395 271.869 131.695 277.775 128.542 272.649C125.39 267.524 126.584 254.949 126.584 254.949Z" fill="#FFAF87"/>
<path d="M127.38 121.879C127.38 121.879 110.709 172.242 103.671 175.998C96.6336 179.755 87.7488 188.079 95.1369 166.734C97.9074 158.775 108.114 122.277 112.922 120.064C117.731 117.852 127.38 121.879 127.38 121.879Z" fill="#FAFEFA"/>
<path d="M330.901 187.57C330.901 187.57 346.824 172.305 354.435 169.695C362.046 167.084 368.526 168.103 373.542 172.576C378.557 177.049 379.529 184.816 375.882 191.677C372.236 198.537 330.965 239.636 330.965 239.636L330.901 187.57Z" fill="#FFAF87"/>
<path d="M142.363 319.303C139.688 314.528 137.586 309.753 135.23 304.977C132.873 300.202 130.708 295.427 128.224 290.652C130.267 292.46 132.061 294.531 133.558 296.812C135.061 299.061 136.397 301.418 137.554 303.863C138.698 306.309 139.687 308.823 140.516 311.392C141.378 313.965 141.997 316.614 142.363 319.303Z" fill="#CC7A6C"/>
<path d="M44.8696 454.872C46.7378 454.268 48.7493 454.268 50.6176 454.872C52.4809 455.477 54.2661 456.299 55.9357 457.324C59.2157 459.345 62.4162 461.446 65.4892 463.691C71.8582 468.052 77.9087 472.748 83.8319 477.666C89.7551 482.585 95.312 487.79 101.347 492.358C107.289 497.113 114.136 500.612 121.473 502.641C113.82 501.525 106.556 498.558 100.312 493.998C93.9427 489.668 88.1469 484.447 82.3033 479.672C76.4598 474.897 70.4889 470.01 64.4383 465.346C61.413 463.038 58.3559 460.714 55.2988 458.47C52.2417 456.225 48.7547 454.204 44.8696 454.872Z" fill="#CC7A6C"/>
<path d="M69.6768 432.11C74.0105 435.109 78.0563 438.503 81.762 442.25C85.5571 445.905 88.9959 449.913 92.032 454.22C87.6983 451.221 83.6525 447.827 79.9468 444.08C76.1649 440.412 72.7272 436.406 69.6768 432.11Z" fill="#CC7A6C"/>
<path d="M128.701 337.943C118.696 346.968 105.634 351.856 92.1594 351.616C98.5284 349.881 104.77 348.162 110.821 345.87C116.911 343.53 122.879 340.885 128.701 337.943Z" fill="#CC7A6C"/>
<path d="M100.773 365.146C104.477 363.833 108.492 363.677 112.285 364.7C110.662 365.906 108.703 366.579 106.681 366.626C104.605 366.765 102.538 366.247 100.773 365.146Z" fill="#CC7A6C"/>
<path d="M82.7969 193.109C87.9002 192.936 93.0093 193.058 98.0985 193.475C103.191 193.846 108.258 194.516 113.273 195.481C110.741 195.993 108.165 196.255 105.582 196.261C103.018 196.261 100.455 196.261 97.9074 196.054C95.3502 195.853 92.8047 195.523 90.2805 195.067C87.7283 194.659 85.222 194.003 82.7969 193.109Z" fill="#CC7A6C"/>
<path d="M85.2809 202.214C87.6878 201.57 90.1976 201.402 92.6689 201.721C95.1382 201.942 97.5401 202.645 99.7385 203.79C97.3311 204.432 94.8219 204.599 92.3505 204.283C89.8804 204.067 87.4776 203.364 85.2809 202.214Z" fill="#CC7A6C"/>
<path d="M128.224 390.136C133.711 395.128 138.85 400.489 143.605 406.181C148.404 411.861 152.834 417.842 156.868 424.088C160.953 430.349 164.409 436.998 167.186 443.937C170.067 450.853 171.44 458.304 171.215 465.792C170.922 462.124 170.228 458.5 169.145 454.984C168.111 451.472 166.834 448.036 165.323 444.701C162.275 438.047 158.741 431.625 154.751 425.489C150.802 419.297 146.519 413.328 142.013 407.454C137.507 401.581 133.001 395.787 128.224 390.136Z" fill="#CC7A6C"/>
<path d="M357.476 357.155C357.476 357.155 364.768 357.155 367.173 363.14C369.577 369.125 366.822 378.469 364.673 380.649C362.523 382.83 354.053 382.798 354.053 382.798L348.703 365.83L357.476 357.155Z" fill="#E9EAE7"/>
<path d="M360.485 357.617C359.504 357.342 358.494 357.187 357.476 357.155L348.703 365.83L354.132 382.766C354.132 382.766 356.091 382.766 358.352 382.528C365.994 374.664 367.523 364.206 360.485 357.617Z" fill="#D7DCE7"/>
<path d="M330.901 389.006C330.901 389.006 348.942 389.722 356.377 382.639C364.705 374.68 366.042 363.458 357.508 357.171H330.901V389.006Z" fill="#FFAF87"/>
<path d="M347.11 367.072C349.746 367.155 352.369 366.672 354.803 365.656C357.236 364.64 359.424 363.115 361.218 361.182C360.224 359.61 358.937 358.243 357.428 357.155H330.901V362.551C335.822 365.435 341.407 366.993 347.11 367.072Z" fill="#FF9B89"/>
<path d="M357.476 324.938C357.476 324.938 364.466 337.545 364.673 345.121C364.88 352.698 357.492 362.472 346.919 362.074C336.347 361.676 330.901 357.091 330.901 357.091C330.901 357.091 323.959 351.902 324.357 340.728C324.755 329.554 330.901 314.257 330.901 314.257L357.476 324.938Z" fill="#FFAF87"/>
<path d="M357.476 324.938L330.901 314.257C330.901 314.257 330.137 316.183 329.134 319.128C331.22 320.338 349.833 331.082 358.081 330.716C358.845 330.716 359.53 330.573 360.231 330.477C358.75 327.246 357.476 324.938 357.476 324.938Z" fill="#FF9B89"/>
<path d="M330.901 265.359C334.77 265.088 338.641 265.84 342.127 267.54C347.556 270.341 352.636 271.041 355.788 278.682C358.941 286.322 362.778 294.79 366.807 299.518C370.835 304.245 372.411 310.199 371.01 315.085C369.609 319.972 365.453 324.54 357.476 324.89C349.499 325.241 330.901 314.21 330.901 314.21V265.359Z" fill="#FFAF87"/>
<path d="M370.723 306.585C369.903 304.006 368.57 301.619 366.807 299.566C362.778 294.79 358.845 286.434 355.788 278.73C355.284 277.496 354.654 276.317 353.909 275.212C353.909 275.212 349.992 275.673 351.203 282.9C352.413 290.126 355.884 297.703 359.02 298.626C362.157 299.55 369.227 303.258 370.723 306.585Z" fill="#FAFEFA"/>
<path d="M338.544 180.71C334.229 184.403 330.901 187.57 330.901 187.57V239.557C330.901 239.557 333.99 236.469 338.544 231.868V180.71Z" fill="#FF9B89"/>
<path d="M284.041 174.375H189.223C183.894 174.375 179.574 178.693 179.574 184.021V278.809C179.574 284.136 183.894 288.455 189.223 288.455H284.041C289.37 288.455 293.69 284.136 293.69 278.809V184.021C293.69 178.693 289.37 174.375 284.041 174.375Z" fill="white"/>
<path d="M280.523 257.782V250.683H277.051V247.293H280.491V236.803H270.046V240.162H266.511V243.695H256.002V236.771H252.387V233.221H259.537V236.723H262.944V233.221H266.495V229.672H262.944V233.221H259.537V229.672H262.896V226.313H259.537V229.672H245.445V233.19H249.012V236.787H252.387V240.193H249.012V236.835H241.863V229.688H238.455V233.237H234.857V226.297H241.799V229.656H245.35V226.297H248.916V222.684H255.859V215.553H252.308V219.135H248.916V222.684H245.366V226.25H241.831V219.103H248.948V215.521H252.324V201.657H248.948C248.948 202.755 248.948 203.854 248.948 205.048H245.366V208.549H241.767V215.473H238.392V208.645H234.905V219.135H238.344V222.684H231.242V226.154H227.931V219.055H231.115V215.553H213.839V219.119H220.765V222.684H224.237V229.576H220.718V226.25H217.183V229.656H213.791V233.19H227.867V229.688H231.29V233.19H234.841V236.787H238.408V240.193H234.905V247.324H245.366V254.296H241.831V250.747H227.899V254.328H224.316V257.878H220.829V275.387H227.835V272.012H224.38V268.447H231.338V261.395H234.889V264.929H238.455V268.511H241.783V272.028H231.354V275.355H248.996V272.028H252.387V275.291H259.537V272.028H255.875V268.399H249.028V261.332H252.356V264.786H259.537V261.348H262.944V264.881H276.956V272.028H270.093V275.323H280.507V261.204H273.596V257.814H266.527V254.248H270.093V247.372H273.66V254.296H277.051V257.782H280.523ZM248.885 212.083H245.398V208.581H248.885V212.083ZM227.819 261.173H224.316V257.862H227.819V261.173ZM234.905 257.782V254.296H241.799V257.782H234.905ZM245.35 264.77H241.879V261.3H245.35V264.77ZM248.885 257.798H245.398V254.296H248.885V257.798ZM238.439 243.679V240.193H248.948V243.695L238.439 243.679ZM262.817 257.814H252.403V247.388H262.817V257.814ZM276.924 243.679H270.046V240.193H276.924V243.679Z" fill="#0C0C0C"/>
<path d="M280.507 187.57H255.97V212.099H280.507V187.57ZM276.924 208.502H259.537V191.12H276.924V208.502Z" fill="#0C0C0C"/>
<path d="M217.103 187.538H192.758V212.067H217.103V187.538ZM213.728 208.518H196.213V191.152H213.728V208.518Z" fill="#0C0C0C"/>
<path d="M192.758 275.307H217.087V250.778H192.758V275.307ZM196.165 254.344H213.68V271.853H196.165V254.344Z" fill="#0C0C0C"/>
<path d="M206.642 229.592V222.684H210.177V215.585H192.758V219.119H196.07V226.218H192.774V247.261H196.085V236.739H199.716V233.142H203.251V229.576L206.642 229.592ZM203.298 219.166H206.61V222.684H203.298V219.166ZM199.588 229.576H196.101V226.266H199.588V229.576Z" fill="#0C0C0C"/>
<path d="M227.867 250.699C227.867 249.569 227.867 248.455 227.867 247.34H231.226V233.221H227.867V240.193H224.348V236.914H213.759V233.301H203.282V240.193H206.61V236.851H210.177V240.193H220.638V243.791H210.177V247.388H220.734V254.296H224.268V250.699H227.867ZM224.38 243.807H227.867V247.308H224.38V243.807Z" fill="#0C0C0C"/>
<path d="M238.36 194.415V191.136H231.226V194.415H227.851V187.554H224.3V191.12H220.781V194.478H224.236V198.06H220.797V201.593H227.867V198.107H231.29V201.593H234.825V194.415H238.36Z" fill="#0C0C0C"/>
<path d="M252.276 198.012V187.554H248.948V191.088H245.397V198.06H238.392V201.625H234.857V204.92H241.847V201.641H248.916V198.012H252.276Z" fill="#0C0C0C"/>
<path d="M273.596 219.119H269.998V215.601H266.479V222.684H273.596V219.119Z" fill="#0C0C0C"/>
<path d="M277.051 226.297V229.576H280.538V222.684H273.644V226.297H277.051Z" fill="#0C0C0C"/>
<path d="M227.899 212.083H231.258V201.625H227.899V212.083Z" fill="#0C0C0C"/>
<path d="M220.781 205.079V212.099H224.236V205.079H220.781Z" fill="#0C0C0C"/>
<path d="M266.399 268.447H259.537V272.028H266.431L266.399 268.447Z" fill="#0C0C0C"/>
<path d="M262.864 215.601H259.537V222.684H262.896L262.864 215.601Z" fill="#0C0C0C"/>
<path d="M241.879 187.57V191.072H245.366V187.57H241.879Z" fill="#0C0C0C"/>
<path d="M259.537 226.234V222.684H255.986V226.234H259.537Z" fill="#0C0C0C"/>
<path d="M206.642 240.193V243.743H210.177V240.193H206.642Z" fill="#0C0C0C"/>
<path d="M270.014 236.771V233.221H266.479V236.771H270.014Z" fill="#0C0C0C"/>
<path d="M266.447 226.234V222.684H262.896V226.234H266.447Z" fill="#0C0C0C"/>
<path d="M273.548 229.704H270.046V233.206H273.548V229.704Z" fill="#0C0C0C"/>
<path d="M276.94 215.601H273.612V219.087H276.94V215.601Z" fill="#0C0C0C"/>
<path d="M203.298 247.245H206.61V243.759H203.298V247.245Z" fill="#0C0C0C"/>
<path d="M213.839 222.684V226.17H217.151V222.684H213.839Z" fill="#0C0C0C"/>
<path d="M259.441 250.778H255.954V254.233H259.441V250.778Z" fill="#0C0C0C"/>
<path d="M273.564 194.51H262.944V204.92H273.564V194.51Z" fill="#0C0C0C"/>
<path d="M210.177 194.542H199.764V204.952H210.177V194.542Z" fill="#0C0C0C"/>
<path d="M199.7 268.32H210.177V257.91H199.748L199.7 268.32Z" fill="#0C0C0C"/>
<path d="M305.951 229.688H173.269V233.174H305.951V229.688Z" fill="#7FAA4A"/>
<path d="M170.068 190.26C169.834 190.26 169.602 190.214 169.386 190.124C169.169 190.035 168.973 189.904 168.807 189.738C168.642 189.572 168.51 189.376 168.421 189.16C168.331 188.943 168.285 188.712 168.285 188.477V170.857C168.285 168.455 169.239 166.151 170.938 164.452C172.637 162.754 174.942 161.8 177.345 161.8H194.987C195.429 161.842 195.839 162.047 196.138 162.375C196.436 162.703 196.602 163.131 196.602 163.574C196.602 164.018 196.436 164.446 196.138 164.774C195.839 165.102 195.429 165.307 194.987 165.349H177.345C175.884 165.349 174.482 165.93 173.449 166.962C172.416 167.995 171.835 169.396 171.835 170.857V188.477C171.836 188.947 171.65 189.399 171.319 189.732C170.988 190.066 170.538 190.256 170.068 190.26Z" fill="white"/>
<path d="M303.212 190.26C302.739 190.26 302.285 190.072 301.951 189.738C301.617 189.404 301.429 188.95 301.429 188.477V170.857C301.42 169.402 300.836 168.009 299.804 166.983C298.772 165.957 297.375 165.381 295.92 165.381H278.293C278.046 165.405 277.797 165.376 277.561 165.298C277.325 165.219 277.109 165.092 276.925 164.925C276.741 164.758 276.594 164.554 276.494 164.327C276.394 164.1 276.342 163.855 276.342 163.606C276.342 163.358 276.394 163.112 276.494 162.885C276.594 162.658 276.741 162.455 276.925 162.288C277.109 162.121 277.325 161.994 277.561 161.915C277.797 161.837 278.046 161.808 278.293 161.832H295.92C298.324 161.832 300.63 162.785 302.331 164.483C304.033 166.181 304.991 168.485 304.995 170.889V188.477C304.995 188.95 304.807 189.404 304.473 189.738C304.139 190.072 303.685 190.26 303.212 190.26Z" fill="white"/>
<path d="M295.92 301.062H278.293C277.82 301.062 277.367 300.874 277.032 300.54C276.698 300.205 276.51 299.752 276.51 299.279C276.51 298.806 276.698 298.353 277.032 298.018C277.367 297.684 277.82 297.496 278.293 297.496H295.92C297.378 297.496 298.777 296.918 299.809 295.889C300.842 294.859 301.424 293.463 301.429 292.005V274.368C301.429 273.895 301.617 273.442 301.951 273.108C302.285 272.773 302.739 272.585 303.212 272.585C303.685 272.585 304.139 272.773 304.473 273.108C304.807 273.442 304.995 273.895 304.995 274.368V292.005C304.991 294.408 304.033 296.712 302.331 298.41C300.63 300.108 298.324 301.062 295.92 301.062Z" fill="white"/>
<path d="M194.987 301.062H177.345C174.942 301.062 172.637 300.108 170.938 298.409C169.239 296.711 168.285 294.407 168.285 292.005V274.368C168.261 274.121 168.29 273.872 168.368 273.636C168.447 273.401 168.574 273.184 168.741 273C168.908 272.817 169.112 272.67 169.339 272.569C169.566 272.469 169.812 272.417 170.06 272.417C170.309 272.417 170.554 272.469 170.781 272.569C171.009 272.67 171.212 272.817 171.379 273C171.546 273.184 171.673 273.401 171.752 273.636C171.831 273.872 171.859 274.121 171.836 274.368V292.005C171.84 293.463 172.422 294.859 173.455 295.889C174.487 296.918 175.886 297.496 177.345 297.496H194.987C195.46 297.496 195.913 297.684 196.248 298.018C196.582 298.353 196.77 298.806 196.77 299.279C196.77 299.752 196.582 300.205 196.248 300.54C195.913 300.874 195.46 301.062 194.987 301.062Z" fill="white"/>
<path d="M286.35 328.519H186.93C183.685 328.519 181.055 331.149 181.055 334.393V350.502C181.055 353.745 183.685 356.375 186.93 356.375H286.35C289.595 356.375 292.226 353.745 292.226 350.502V334.393C292.226 331.149 289.595 328.519 286.35 328.519Z" fill="#7FAA4A"/>
</g>
<defs>
<clipPath id="clip0_4006_1041">
<rect width="170" height="188" fill="white" transform="translate(411)"/>
</clipPath>
<clipPath id="clip1_4006_1041">
<rect width="378" height="517" fill="white" transform="translate(0 46)"/>
</clipPath>
</defs>
</svg>
