<svg width="508" height="608" viewBox="0 0 508 608" fill="none" xmlns="http://www.w3.org/2000/svg">
<path d="M363.42 409.688L236.197 409.05C220.915 408.922 208.562 396.542 208.562 381.227L209.963 61.6475C210.09 46.3321 222.443 33.9523 237.852 33.9523L365.076 34.5904C380.358 34.718 392.711 47.0979 392.711 62.4132L391.31 381.993C391.183 397.308 378.703 409.688 363.42 409.688Z" fill="#0C0C0C"/>
<path d="M364.821 45.5663L340.243 45.4387C336.931 45.4387 334.257 48.2465 334.257 51.6924V56.1594C334.257 59.6053 331.583 62.4131 328.272 62.4131L280.26 62.1579C276.949 62.1579 274.275 59.3501 274.275 55.9041V51.4372C274.275 47.9912 271.6 45.1834 268.289 45.1834H259.629L238.107 45.0558C227.41 45.0558 218.622 53.7345 218.622 64.4552L217.349 376.377C217.349 387.098 226.009 395.904 236.706 395.904L363.675 396.542C374.373 396.542 383.16 387.863 383.16 377.143L384.433 65.2209C384.179 54.3726 375.519 45.5663 364.821 45.5663Z" fill="white"/>
<path d="M347.756 354.808L253.389 354.425C252.37 354.425 251.606 353.404 251.606 352L251.734 327.24C251.734 325.964 252.498 324.816 253.516 324.816L347.884 325.198C348.902 325.198 349.666 326.219 349.666 327.623L349.539 352.383C349.539 353.787 348.775 354.808 347.756 354.808Z" fill="#FF9F1C"/>
<path d="M279.804 343.125C279.196 343.123 278.615 343.035 278.059 342.862C277.504 342.681 277.064 342.453 276.739 342.177L277.244 341.057C277.555 341.303 277.939 341.509 278.398 341.674C278.857 341.839 279.327 341.923 279.809 341.925C280.216 341.927 280.546 341.884 280.799 341.796C281.051 341.708 281.237 341.591 281.356 341.443C281.475 341.288 281.535 341.114 281.536 340.921C281.537 340.684 281.453 340.495 281.283 340.353C281.113 340.204 280.891 340.088 280.617 340.005C280.351 339.915 280.051 339.832 279.718 339.757C279.392 339.681 279.063 339.594 278.73 339.496C278.404 339.391 278.104 339.26 277.831 339.103C277.565 338.939 277.347 338.723 277.178 338.455C277.008 338.188 276.924 337.846 276.926 337.431C276.928 337.009 277.041 336.624 277.265 336.277C277.496 335.922 277.842 335.642 278.302 335.437C278.77 335.224 279.36 335.119 280.071 335.122C280.538 335.125 281.001 335.186 281.46 335.307C281.919 335.427 282.318 335.6 282.658 335.824L282.198 336.944C281.85 336.735 281.492 336.582 281.121 336.484C280.751 336.378 280.396 336.325 280.055 336.323C279.655 336.321 279.328 336.368 279.076 336.463C278.831 336.558 278.649 336.683 278.53 336.838C278.418 336.994 278.361 337.171 278.361 337.371C278.36 337.608 278.44 337.801 278.603 337.95C278.773 338.092 278.991 338.204 279.257 338.287C279.531 338.37 279.835 338.453 280.168 338.536C280.501 338.611 280.83 338.698 281.156 338.796C281.489 338.894 281.789 339.021 282.055 339.178C282.329 339.335 282.546 339.547 282.708 339.815C282.878 340.083 282.961 340.42 282.96 340.828C282.958 341.243 282.841 341.628 282.61 341.982C282.386 342.33 282.04 342.61 281.573 342.822C281.105 343.028 280.515 343.129 279.804 343.125ZM284.383 343.036L284.416 335.254L285.861 335.26L285.829 343.042L284.383 343.036ZM287.933 343.052L287.966 335.27L289.156 335.276L294.011 341.29L293.422 341.288L293.447 335.296L294.881 335.302L294.848 343.084L293.659 343.078L288.804 337.064L289.393 337.067L289.367 343.059L287.933 343.052ZM300.568 343.222C299.96 343.219 299.401 343.12 298.891 342.925C298.387 342.722 297.948 342.442 297.571 342.085C297.195 341.72 296.904 341.293 296.698 340.802C296.493 340.312 296.391 339.778 296.394 339.2C296.396 338.622 296.502 338.089 296.712 337.601C296.921 337.113 297.216 336.691 297.595 336.337C297.982 335.976 298.432 335.7 298.944 335.51C299.456 335.312 300.016 335.215 300.624 335.218C301.284 335.221 301.876 335.331 302.401 335.548C302.934 335.766 303.381 336.083 303.743 336.499L302.827 337.384C302.525 337.079 302.196 336.855 301.841 336.713C301.493 336.563 301.108 336.487 300.685 336.485C300.278 336.483 299.899 336.548 299.551 336.68C299.202 336.812 298.901 336.999 298.648 337.243C298.395 337.486 298.197 337.774 298.055 338.107C297.92 338.44 297.852 338.807 297.85 339.207C297.848 339.6 297.914 339.963 298.046 340.297C298.185 340.631 298.38 340.925 298.631 341.178C298.882 341.424 299.178 341.614 299.518 341.749C299.858 341.884 300.236 341.953 300.651 341.955C301.037 341.956 301.407 341.899 301.764 341.782C302.127 341.658 302.473 341.452 302.8 341.164L303.618 342.246C303.209 342.571 302.734 342.817 302.192 342.985C301.658 343.145 301.116 343.224 300.568 343.222ZM302.252 342.051L302.264 339.138L303.631 339.145L303.618 342.246L302.252 342.051ZM311.939 343.274C310.871 343.269 310.035 342.965 309.43 342.362C308.832 341.759 308.536 340.891 308.541 339.757L308.559 335.365L310.004 335.372L309.986 339.708C309.983 340.508 310.151 341.091 310.49 341.455C310.837 341.82 311.325 342.004 311.955 342.007C312.585 342.01 313.071 341.831 313.414 341.469C313.756 341.107 313.929 340.526 313.932 339.726L313.951 335.39L315.374 335.397L315.355 339.788C315.35 340.922 315.043 341.788 314.433 342.385C313.83 342.983 312.998 343.279 311.939 343.274ZM317.365 343.188L317.398 335.406L320.599 335.421C321.289 335.424 321.877 335.538 322.366 335.763C322.861 335.988 323.241 336.308 323.507 336.724C323.772 337.141 323.903 337.634 323.901 338.205C323.898 338.775 323.763 339.268 323.494 339.681C323.225 340.095 322.842 340.412 322.345 340.632C321.855 340.852 321.265 340.961 320.576 340.957L318.175 340.946L318.822 340.271L318.81 343.195L317.365 343.188ZM318.822 340.427L318.18 339.723L320.514 339.734C321.152 339.737 321.63 339.606 321.95 339.341C322.277 339.068 322.442 338.687 322.444 338.198C322.446 337.701 322.285 337.319 321.96 337.051C321.642 336.782 321.165 336.647 320.527 336.644L318.193 336.633L318.841 335.924L318.822 340.427Z" fill="white"/>
<path d="M272.126 137.28L239.396 137.128L239.369 143.127L272.098 143.278L272.126 137.28Z" fill="#E8505B"/>
<path d="M272.126 137.28L239.396 137.128L239.369 143.127L272.098 143.278L272.126 137.28Z" fill="#FF9F1C"/>
<path d="M368.26 174.215C368.26 174.215 368.515 174.215 369.024 174.087C369.533 173.96 370.17 173.322 370.297 172.428C370.297 170.386 370.297 167.451 370.297 163.622C370.297 161.708 370.297 159.538 370.297 157.241C370.297 156.602 370.297 156.092 370.297 155.454C370.297 154.816 370.297 154.305 369.915 153.795C369.533 153.284 369.024 153.029 368.387 153.029C367.75 153.029 367.114 153.029 366.35 153.029C360.873 153.029 354.761 153.029 348.011 153.029C320.758 152.901 283.062 152.774 241.546 152.646C241.036 152.646 240.399 152.901 240.145 153.412C239.763 153.922 239.763 154.433 239.763 155.071C239.763 156.347 239.763 157.623 239.763 158.9C239.763 161.452 239.763 164.005 239.763 166.557C239.763 167.834 239.763 169.11 239.763 170.386C239.763 171.024 239.763 171.662 239.763 172.173C239.89 172.683 240.272 173.066 240.781 173.322C241.036 173.449 241.291 173.449 241.546 173.449H242.437H244.347C245.621 173.449 246.767 173.449 248.041 173.449C257.847 173.449 267.27 173.577 276.312 173.577C294.269 173.705 310.57 173.832 324.196 173.832C337.823 173.96 348.775 174.087 356.416 174.087C360.237 174.087 363.166 174.215 365.203 174.215C363.166 174.215 360.237 174.215 356.416 174.215C348.775 174.215 337.696 174.215 324.069 174.215C310.442 174.215 294.142 174.087 276.185 174.087C267.143 174.087 257.719 173.96 247.913 173.96C246.64 173.96 245.493 173.96 244.22 173.96H242.31H241.418C241.164 173.96 240.654 173.96 240.399 173.832C239.763 173.577 239.253 172.939 238.999 172.301C238.871 171.918 238.871 171.535 238.871 171.28V170.386C238.871 169.11 238.871 167.834 238.871 166.557C238.871 164.005 238.871 161.452 238.871 158.9C238.871 157.623 238.871 156.347 238.871 155.071C238.871 154.688 238.871 154.433 238.871 154.05C238.871 153.667 239.126 153.284 239.253 153.029C239.635 152.391 240.399 152.008 241.164 152.008C282.807 152.263 320.376 152.391 347.629 152.646C354.379 152.646 360.619 152.774 365.967 152.774C366.604 152.774 367.368 152.774 368.005 152.774C368.769 152.774 369.406 153.156 369.788 153.667C370.17 154.177 370.17 154.943 370.17 155.581C370.17 156.22 370.17 156.73 370.17 157.368C370.17 159.665 370.17 161.835 370.17 163.75C370.17 167.578 370.043 170.514 370.043 172.556C369.915 173.577 369.151 174.215 368.642 174.343C368.515 174.215 368.26 174.215 368.26 174.215Z" fill="#E0E0E0"/>
<path d="M308.038 160.571L248.183 160.294L248.157 165.909L308.012 166.186L308.038 160.571Z" fill="#E8505B"/>
<path d="M308.038 160.571L248.183 160.294L248.157 165.909L308.012 166.186L308.038 160.571Z" fill="#FFD091"/>
<path d="M271.871 192.16L239.142 192.009L239.114 198.007L271.843 198.158L271.871 192.16Z" fill="#E8505B"/>
<path d="M271.871 192.16L239.142 192.009L239.114 198.007L271.843 198.158L271.871 192.16Z" fill="#FF9F1C"/>
<path d="M367.368 229.095C367.368 229.095 367.623 229.095 368.133 228.967C368.642 228.84 369.279 228.457 369.788 227.563C370.043 227.053 370.043 226.542 370.043 225.904C370.043 225.266 370.043 224.628 370.043 223.862C370.043 222.331 370.043 220.671 370.043 218.757C370.043 216.843 370.043 214.673 370.043 212.376C370.043 211.738 370.043 211.227 370.043 210.589C370.043 209.951 370.043 209.44 369.661 208.93C369.406 208.419 368.897 208.036 368.26 207.909C367.75 207.781 366.986 207.781 366.35 207.781C361.001 207.781 354.761 207.781 348.011 207.781C320.885 207.653 283.317 207.526 241.928 207.398C240.782 207.398 239.763 208.292 239.635 209.44C239.635 210.717 239.635 211.993 239.635 213.269C239.635 215.822 239.635 218.374 239.635 220.927C239.635 222.203 239.635 223.479 239.635 224.756C239.635 225.394 239.508 226.032 239.763 226.542C239.89 227.053 240.272 227.563 240.654 227.819C241.164 228.074 241.673 228.201 242.182 228.201H244.093C245.366 228.201 246.512 228.201 247.786 228.201C257.592 228.201 267.016 228.329 275.93 228.329C293.887 228.457 310.06 228.584 323.687 228.584C337.314 228.712 348.266 228.84 355.907 228.84C359.727 228.84 362.656 228.967 364.694 228.967C365.713 228.967 366.477 228.967 366.986 228.967C367.114 229.095 367.368 229.095 367.368 229.095C367.368 229.095 367.114 229.095 366.604 229.095C366.095 229.095 365.331 229.095 364.312 229.095C362.274 229.095 359.345 229.095 355.525 229.095C347.884 229.095 336.932 229.095 323.305 229.095C309.678 229.095 293.505 228.967 275.548 228.967C266.506 228.967 257.082 228.84 247.404 228.84C246.13 228.84 244.984 228.84 243.711 228.84H241.8C241.164 228.84 240.399 228.712 239.89 228.329C239.253 227.946 238.871 227.308 238.744 226.67C238.617 225.904 238.617 225.394 238.617 224.756C238.617 223.479 238.617 222.203 238.617 220.927C238.617 218.374 238.617 215.822 238.617 213.269C238.617 211.993 238.617 210.717 238.617 209.313C238.744 207.781 240.145 206.632 241.546 206.632C282.935 206.888 320.503 207.015 347.629 207.271C354.379 207.271 360.619 207.398 365.968 207.398C366.604 207.398 367.368 207.271 368.005 207.526C368.642 207.781 369.279 208.164 369.533 208.802C369.915 209.313 369.915 210.078 369.915 210.717C369.915 211.355 369.915 211.865 369.915 212.503C369.915 214.801 369.915 216.97 369.915 218.885C369.915 220.799 369.915 222.458 369.915 223.99C369.915 224.756 369.915 225.394 369.915 226.032C369.915 226.67 369.915 227.18 369.661 227.691C369.151 228.584 368.387 228.967 368.005 229.095C367.623 229.223 367.368 229.095 367.368 229.095Z" fill="#E0E0E0"/>
<path d="M271.744 249.466L239.015 249.315L238.987 255.313L271.716 255.464L271.744 249.466Z" fill="#E8505B"/>
<path d="M271.744 249.466L239.015 249.315L238.987 255.313L271.716 255.464L271.744 249.466Z" fill="#FF9F1C"/>
<path d="M367.114 286.527C367.114 286.527 367.368 286.527 367.878 286.4C368.387 286.272 369.024 285.889 369.533 284.996C369.788 284.485 369.788 283.975 369.788 283.337C369.788 282.698 369.788 282.06 369.788 281.295C369.788 279.763 369.788 278.104 369.788 276.189C369.788 274.275 369.788 272.105 369.788 269.808C369.788 269.17 369.788 268.659 369.788 268.021C369.788 267.383 369.788 266.873 369.406 266.362C369.151 265.852 368.642 265.469 368.005 265.341C367.496 265.213 366.732 265.213 366.095 265.213C360.746 265.213 354.506 265.213 347.756 265.213C320.631 265.086 283.062 264.958 241.673 264.831C240.527 264.831 239.508 265.724 239.381 266.873C239.381 268.149 239.381 269.425 239.381 270.701C239.381 273.254 239.381 275.807 239.381 278.359C239.381 279.635 239.381 280.912 239.381 282.188C239.381 282.826 239.253 283.464 239.508 283.975C239.635 284.485 240.017 284.996 240.399 285.251C240.909 285.506 241.418 285.634 241.928 285.634H243.838C245.111 285.634 246.258 285.634 247.531 285.634C257.337 285.634 266.761 285.762 275.676 285.762C293.632 285.889 309.806 286.017 323.432 286.017C337.059 286.144 348.011 286.272 355.652 286.272C359.473 286.272 362.402 286.4 364.439 286.4C365.458 286.4 366.222 286.4 366.732 286.4C366.859 286.4 367.114 286.527 367.114 286.527C367.114 286.527 366.859 286.527 366.35 286.527C365.84 286.527 365.076 286.527 364.057 286.527C362.02 286.527 359.091 286.527 355.27 286.527C347.629 286.527 336.677 286.527 323.05 286.527C309.424 286.527 293.25 286.4 275.294 286.4C266.252 286.4 256.828 286.272 247.149 286.272C245.876 286.272 244.729 286.272 243.456 286.272H241.546C240.909 286.272 240.145 286.144 239.635 285.762C238.999 285.379 238.617 284.74 238.489 284.102C238.362 283.337 238.362 282.826 238.362 282.188C238.362 280.912 238.362 279.635 238.362 278.359C238.362 275.807 238.362 273.254 238.362 270.701C238.362 269.425 238.362 268.149 238.362 266.745C238.489 265.213 239.89 264.065 241.291 264.065C282.68 264.32 320.248 264.448 347.374 264.703C354.124 264.703 360.364 264.831 365.713 264.831C366.35 264.831 367.114 264.703 367.75 264.958C368.387 265.213 369.024 265.596 369.279 266.234C369.661 266.745 369.661 267.511 369.661 268.149C369.661 268.787 369.661 269.298 369.661 269.936C369.661 272.233 369.661 274.403 369.661 276.317C369.661 278.231 369.661 279.891 369.661 281.422C369.661 282.188 369.661 282.826 369.661 283.464C369.661 284.102 369.661 284.74 369.406 285.123C368.897 286.017 368.132 286.4 367.75 286.527C367.368 286.527 367.114 286.527 367.114 286.527Z" fill="#E0E0E0"/>
<path d="M307.784 215.451L247.929 215.174L247.903 220.79L307.758 221.067L307.784 215.451Z" fill="#E8505B"/>
<path d="M307.784 215.451L247.929 215.174L247.903 220.79L307.758 221.067L307.784 215.451Z" fill="#FFD091"/>
<path d="M253.389 276.062C253.389 277.593 252.243 278.87 250.715 278.87C249.314 278.87 248.04 277.593 248.168 276.062C248.168 274.53 249.314 273.254 250.842 273.254C252.243 273.254 253.389 274.53 253.389 276.062Z" fill="#FFD090"/>
<path d="M261.54 276.062C261.54 277.593 260.393 278.87 258.865 278.87C257.464 278.87 256.191 277.593 256.318 276.062C256.318 274.53 257.464 273.254 258.992 273.254C260.393 273.254 261.54 274.53 261.54 276.062Z" fill="#FFD090"/>
<path d="M269.69 276.19C269.69 277.721 268.544 278.997 267.016 278.997C265.615 278.997 264.341 277.721 264.469 276.19C264.469 274.658 265.615 273.382 267.143 273.382C268.544 273.382 269.69 274.53 269.69 276.19Z" fill="#FFD090"/>
<path d="M277.713 276.19C277.713 277.721 276.567 278.997 275.039 278.997C273.638 278.997 272.364 277.721 272.492 276.19C272.492 274.658 273.638 273.382 275.166 273.382C276.567 273.382 277.84 274.658 277.713 276.19Z" fill="#FFD090"/>
<path d="M285.864 276.19C285.864 277.721 284.717 278.997 283.189 278.997C281.788 278.997 280.515 277.721 280.642 276.19C280.642 274.658 281.788 273.382 283.317 273.382C284.717 273.382 285.864 274.658 285.864 276.19Z" fill="#FFD090"/>
<path d="M294.014 276.19C294.014 277.721 292.868 278.997 291.34 278.997C289.939 278.997 288.665 277.721 288.793 276.19C288.793 274.658 289.939 273.382 291.467 273.382C292.868 273.382 294.014 274.658 294.014 276.19Z" fill="#FFD090"/>
<path d="M302.165 276.317C302.165 277.849 301.018 279.125 299.49 279.125C298.089 279.125 296.816 277.849 296.943 276.317C296.943 274.786 298.089 273.509 299.618 273.509C301.018 273.509 302.165 274.786 302.165 276.317Z" fill="#FFD090"/>
<path d="M310.188 276.317C310.188 277.849 309.042 279.125 307.513 279.125C306.112 279.125 304.839 277.849 304.966 276.317C304.966 274.786 306.112 273.509 307.641 273.509C309.042 273.509 310.188 274.786 310.188 276.317Z" fill="#FFD090"/>
<path d="M318.338 276.317C318.338 277.849 317.192 279.125 315.664 279.125C314.263 279.125 312.989 277.849 313.117 276.317C313.117 274.786 314.263 273.509 315.791 273.509C317.192 273.509 318.338 274.786 318.338 276.317Z" fill="#FFD090"/>
<g opacity="0.2">
<path d="M253.389 276.062C253.389 277.593 252.243 278.87 250.715 278.87C249.314 278.87 248.04 277.593 248.168 276.062C248.168 274.53 249.314 273.254 250.842 273.254C252.243 273.254 253.389 274.53 253.389 276.062Z" fill="#FFD090"/>
<path d="M261.54 276.062C261.54 277.593 260.393 278.87 258.865 278.87C257.464 278.87 256.191 277.593 256.318 276.062C256.318 274.53 257.464 273.254 258.992 273.254C260.393 273.254 261.54 274.53 261.54 276.062Z" fill="#FFD090"/>
<path d="M269.69 276.19C269.69 277.721 268.544 278.997 267.016 278.997C265.615 278.997 264.341 277.721 264.469 276.19C264.469 274.658 265.615 273.382 267.143 273.382C268.544 273.382 269.69 274.53 269.69 276.19Z" fill="#FFD090"/>
<path d="M277.713 276.19C277.713 277.721 276.567 278.997 275.039 278.997C273.638 278.997 272.364 277.721 272.492 276.19C272.492 274.658 273.638 273.382 275.166 273.382C276.567 273.382 277.84 274.658 277.713 276.19Z" fill="#FFD090"/>
<path d="M285.864 276.19C285.864 277.721 284.717 278.997 283.189 278.997C281.788 278.997 280.515 277.721 280.642 276.19C280.642 274.658 281.788 273.382 283.317 273.382C284.717 273.382 285.864 274.658 285.864 276.19Z" fill="#FFD090"/>
<path d="M294.014 276.19C294.014 277.721 292.868 278.997 291.34 278.997C289.939 278.997 288.665 277.721 288.793 276.19C288.793 274.658 289.939 273.382 291.467 273.382C292.868 273.382 294.014 274.658 294.014 276.19Z" fill="#FFD090"/>
<path d="M302.165 276.317C302.165 277.849 301.018 279.125 299.49 279.125C298.089 279.125 296.816 277.849 296.943 276.317C296.943 274.786 298.089 273.509 299.618 273.509C301.018 273.509 302.165 274.786 302.165 276.317Z" fill="#FFD090"/>
<path d="M310.188 276.317C310.188 277.849 309.042 279.125 307.513 279.125C306.112 279.125 304.839 277.849 304.966 276.317C304.966 274.786 306.112 273.509 307.641 273.509C309.042 273.509 310.188 274.786 310.188 276.317Z" fill="#FFD090"/>
<path d="M318.338 276.317C318.338 277.849 317.192 279.125 315.664 279.125C314.263 279.125 312.989 277.849 313.117 276.317C313.117 274.786 314.263 273.509 315.791 273.509C317.192 273.509 318.338 274.786 318.338 276.317Z" fill="#FFD090"/>
</g>
<path d="M306.876 92.1504C308.532 91.3847 309.806 89.5979 309.806 87.5558C309.806 84.8757 307.768 82.5784 305.221 82.5784C302.674 82.5784 300.636 84.748 300.509 87.5558C300.509 89.7255 301.782 91.5123 303.438 92.1504C296.306 93.1715 296.688 100.957 296.688 100.957L313.499 101.084C313.499 101.084 313.881 93.1715 306.876 92.1504Z" fill="#E8505B"/>
<path d="M306.876 92.1504C308.532 91.3847 309.806 89.5979 309.806 87.5558C309.806 84.8757 307.768 82.5784 305.221 82.5784C302.674 82.5784 300.636 84.748 300.509 87.5558C300.509 89.7255 301.782 91.5123 303.438 92.1504C296.306 93.1715 296.688 100.957 296.688 100.957L313.499 101.084C313.499 101.084 313.881 93.1715 306.876 92.1504Z" fill="#FF9F1C"/>
<path d="M334.276 106.074L274.167 105.796L274.134 112.943L334.243 113.221L334.276 106.074Z" fill="#E8505B"/>
<path d="M334.276 106.074L274.167 105.796L274.134 112.943L334.243 113.221L334.276 106.074Z" fill="#FF9F1C"/>
<path d="M59.5044 140.788C59.5044 140.788 59.1766 140.788 58.6848 140.952C58.193 140.952 57.3734 141.116 56.3899 141.116C55.4063 141.116 54.2588 141.281 52.7835 141.609C52.1278 141.774 51.3082 141.774 50.4886 142.102C49.669 142.266 48.8494 142.595 48.0297 142.759C44.4234 143.909 40.1614 145.716 35.8994 148.838C31.6374 151.959 27.3753 156.394 23.9329 162.144C22.1298 164.937 20.9823 168.223 19.8348 171.673C18.8513 175.122 18.0317 178.901 18.0317 182.844C17.8677 184.815 18.0317 186.786 18.1956 188.758C18.1956 189.743 18.5234 190.729 18.5234 191.715C18.6874 192.7 18.8513 193.686 19.1791 194.836C19.9988 198.943 21.638 202.886 23.769 206.828C28.031 214.55 35.0798 221.121 43.7677 225.064C48.1937 227.035 52.9475 228.021 57.8652 228.185C62.7829 228.513 67.8645 227.692 72.6183 226.049L74.0936 225.556H74.2576L74.4215 225.721C81.4702 229.335 88.355 232.785 95.0759 236.235L94.4202 236.727C92.2892 229.828 89.9942 223.256 88.0272 216.85V216.685L88.1911 216.521C93.4366 211.264 97.043 204.857 99.0101 198.45C100.977 191.879 101.305 185.308 100.649 179.229C99.8297 173.151 97.8626 167.566 95.2398 162.966C92.617 158.202 89.3386 154.423 85.8962 151.466C82.4538 148.509 78.8474 146.538 75.7329 145.059C72.4544 143.745 69.5038 142.759 67.2088 142.431C66.0614 142.266 64.9139 142.102 63.9304 141.938C62.9468 141.938 62.2911 141.774 61.6354 141.774C60.9797 141.774 60.488 141.609 60.1601 141.609C59.6683 140.952 59.5044 140.788 59.5044 140.788C59.5044 140.788 59.6683 140.788 59.9962 140.788C60.324 140.788 60.8158 140.788 61.4715 140.788C62.1272 140.788 62.9468 140.788 63.9304 140.952C64.9139 141.116 65.8974 141.281 67.2088 141.445C69.6677 141.938 72.6183 142.759 75.8968 144.074C79.1753 145.552 82.7816 147.523 86.224 150.48C89.6664 153.437 93.1088 157.216 95.7316 161.98C98.5183 166.744 100.485 172.33 101.305 178.572C102.125 184.815 101.797 191.55 99.8297 198.122C97.8626 204.693 94.0923 211.264 88.8468 216.521L89.0107 216.028C91.1417 222.435 93.2727 229.006 95.4037 235.906L95.7316 236.892L94.748 236.399C88.0272 232.949 81.1424 229.499 74.0936 225.885H74.4215L72.9462 226.378C68.0285 228.021 62.9468 228.842 57.8652 228.513C52.7835 228.349 47.8658 227.199 43.4399 225.228C34.588 221.285 27.3753 214.55 23.1133 206.664C20.9823 202.721 19.3431 198.614 18.5234 194.507C18.1956 193.522 18.0317 192.372 17.8677 191.386C17.7038 190.4 17.5399 189.415 17.5399 188.265C17.5399 186.293 17.2121 184.158 17.376 182.186C17.376 178.244 18.3595 174.465 19.3431 170.851C20.4905 167.401 21.8019 164.116 23.6051 161.159C27.0475 155.409 31.4734 150.973 35.7354 147.852C40.1614 144.731 44.4234 142.924 48.0297 141.938C49.0133 141.774 49.8329 141.445 50.6525 141.281C51.4721 141.116 52.2918 140.952 52.9475 140.952C54.4228 140.788 55.5702 140.459 56.5538 140.624C57.5373 140.624 58.193 140.624 58.8487 140.624C59.1766 140.788 59.5044 140.788 59.5044 140.788Z" fill="#E89E30"/>
<path d="M139.335 600.279V586.151L114.255 585.987L114.091 607.179L115.73 607.343C122.615 607.836 150.974 608.493 155.728 607.014C160.645 605.536 139.335 600.279 139.335 600.279Z" fill="#67AC40"/>
<path d="M156.055 605.7C156.055 605.864 146.712 606.193 135.073 606.193C123.435 606.193 114.091 606.029 114.091 605.7C114.091 605.536 123.435 605.207 135.073 605.207C146.548 605.372 156.055 605.536 156.055 605.7Z" fill="#263238"/>
<path d="M139.663 603.072C139.499 602.907 139.663 602.25 140.155 601.429C140.647 600.772 141.302 600.279 141.466 600.443C141.63 600.607 141.302 601.265 140.811 601.922C140.483 602.743 139.991 603.236 139.663 603.072Z" fill="#263238"/>
<path d="M141.302 604.057C141.138 604.057 141.138 603.072 141.63 602.25C142.122 601.429 142.778 600.772 142.941 600.936C143.105 601.1 142.778 601.757 142.286 602.579C141.958 603.564 141.63 604.222 141.302 604.057Z" fill="#263238"/>
<path d="M121.631 605.7C121.468 605.7 121.14 605.372 120.648 604.714C120.156 604.057 119.337 603.236 118.517 602.579C117.533 601.922 116.55 601.429 115.73 601.429C114.911 601.265 114.419 601.429 114.419 601.265C114.419 601.1 114.911 600.772 115.73 600.772C116.55 600.772 117.861 601.1 119.009 601.922C119.992 602.743 120.812 603.729 121.14 604.386C121.468 605.207 121.631 605.7 121.631 605.7Z" fill="#263238"/>
<path d="M139.827 600.443C139.991 600.607 139.499 601.1 138.843 601.429C138.188 601.757 137.532 601.593 137.368 601.429C137.368 601.265 137.86 600.936 138.516 600.607C139.171 600.443 139.663 600.279 139.827 600.443Z" fill="#263238"/>
<path d="M139.335 599.129C139.335 599.293 138.68 599.622 137.86 599.622C137.04 599.622 136.385 599.458 136.385 599.293C136.385 599.129 137.04 598.8 137.86 598.8C138.68 598.8 139.335 598.965 139.335 599.129Z" fill="#263238"/>
<path d="M201.135 600.279V586.151L176.054 585.987L175.89 607.014L177.529 607.179C184.414 607.672 212.773 608.493 217.527 607.014C222.445 605.536 201.135 600.279 201.135 600.279Z" fill="#67AC40"/>
<path d="M217.855 605.864C217.855 606.029 208.511 606.357 196.873 606.357C185.234 606.357 175.89 606.193 175.89 605.864C175.89 605.7 185.234 605.372 196.873 605.372C208.511 605.372 217.855 605.536 217.855 605.864Z" fill="#263238"/>
<path d="M201.626 603.072C201.462 602.907 201.626 602.25 202.118 601.429C202.61 600.772 203.266 600.279 203.429 600.443C203.593 600.607 203.266 601.265 202.774 601.922C202.282 602.743 201.79 603.236 201.626 603.072Z" fill="#263238"/>
<path d="M203.266 604.057C203.102 604.057 203.102 603.072 203.593 602.25C204.085 601.429 204.741 600.772 204.905 600.936C205.069 601.1 204.741 601.757 204.249 602.579C203.921 603.564 203.429 604.222 203.266 604.057Z" fill="#263238"/>
<path d="M183.431 605.7C183.267 605.7 182.939 605.372 182.447 604.714C181.955 604.057 181.136 603.236 180.316 602.579C179.333 601.922 178.349 601.429 177.53 601.429C176.71 601.265 176.218 601.429 176.218 601.265C176.218 601.1 176.71 600.772 177.53 600.772C178.349 600.772 179.661 601.1 180.808 601.922C181.792 602.743 182.611 603.729 182.939 604.386C183.431 605.207 183.595 605.7 183.431 605.7Z" fill="#263238"/>
<path d="M201.626 600.443C201.79 600.607 201.298 601.1 200.643 601.429C199.987 601.757 199.331 601.593 199.167 601.429C199.167 601.265 199.659 600.936 200.315 600.607C200.971 600.443 201.626 600.279 201.626 600.443Z" fill="#263238"/>
<path d="M201.298 599.129C201.298 599.293 200.643 599.622 199.823 599.622C199.003 599.622 198.348 599.458 198.348 599.293C198.348 599.129 199.003 598.8 199.823 598.8C200.643 598.8 201.298 598.965 201.298 599.129Z" fill="#263238"/>
<path d="M293.752 183.172C293.096 182.515 291.457 182.844 291.457 182.844C291.457 182.844 291.784 180.872 291.457 180.051C291.129 179.065 289.162 179.229 289.162 179.229C289.162 179.229 288.998 178.408 289.162 176.929C289.162 176.601 288.998 176.272 288.67 176.108C287.686 175.451 285.555 175.615 285.555 175.615C284.244 174.63 289.49 167.565 291.293 165.266C293.096 162.966 292.932 161.159 291.129 161.159C289.981 161.159 283.916 168.058 282.113 170.358C280.31 172.658 275.392 179.065 275.228 173.972C275.064 168.88 272.933 164.937 271.786 164.28C270.474 163.623 269.163 165.101 269.819 166.58C270.474 167.73 270.802 170.03 270.966 171.672C271.13 172.987 271.13 174.465 270.802 175.779C269.983 179.558 268.999 182.186 268.671 183.172H268.507C268.507 183.172 232.772 217.507 230.149 219.971C227.854 222.106 181.3 217.342 171.956 216.357C169.333 216.028 165.563 215.535 162.449 215.7C158.35 215.864 157.695 216.521 153.597 216.521C141.138 216.685 130.975 217.835 123.271 219.149C113.927 220.792 106.387 227.363 103.436 236.399C94.0923 265.805 72.7822 335.46 69.0119 374.558C66.0613 380.144 62.6189 386.715 61.3075 390.493C58.6847 397.722 59.3404 397.886 60.1601 398.05C62.6189 398.543 65.2417 385.565 66.2252 388.686C67.2088 391.808 60.9797 404.129 63.6025 404.457C66.8809 404.95 69.5037 391.315 69.8316 390.165C70.1594 389.015 71.7986 389.508 71.4708 390.493C70.979 391.972 66.3892 407.25 69.6676 407.743C71.4708 408.071 71.6347 404.786 71.6347 404.786C71.6347 404.786 74.9132 390.165 76.3885 390.329C77.8638 390.658 76.2246 399.364 75.5689 402.157C74.7493 404.95 75.8967 406.593 77.3721 405.771C78.3556 405.279 80.9784 396.572 81.6341 393.615C82.2898 390.822 84.0929 382.772 86.3879 387.372C88.6828 391.972 92.1252 394.6 93.6005 394.6C95.0758 394.6 95.7315 392.629 94.4201 391.643C93.4366 390.822 92.1252 389.015 91.3056 387.536C90.6499 386.386 89.9942 385.072 89.6664 383.758C88.5189 378.501 88.5189 375.38 88.5189 375.38L88.191 373.737C91.7974 355.502 102.452 302.111 117.697 267.941L123.926 280.919L126.713 290.447L109.993 331.845L181.136 330.86L170.481 289.954L183.431 247.241C197.364 247.57 233.264 248.063 239.165 245.434C246.705 242.149 285.555 193.029 285.555 193.029C288.178 190.893 290.801 188.758 292.768 186.786C292.932 186.458 295.227 184.651 293.752 183.172Z" fill="#FFBE9D"/>
<path d="M106.878 301.289C109.009 294.225 119.5 259.234 119.5 259.234C119.5 259.234 124.746 287.654 123.271 291.104C121.631 295.047 118.845 299.647 118.845 299.647C106.878 318.046 108.354 327.246 108.354 327.246L180.972 324.946C181.136 314.76 175.071 291.104 173.923 287.326C172.612 283.547 176.874 271.226 176.874 271.226C176.874 271.226 185.07 262.848 184.742 258.577C184.086 249.87 183.267 247.077 183.267 247.077L227.526 248.72L226.215 218.657L162.612 212.25C160.481 218.492 140.319 215.371 140.319 215.371C118.681 216.028 117.369 220.135 108.354 227.035C99.3378 234.099 84.4208 294.061 84.4208 294.061L106.878 301.289Z" fill="#67AC40"/>
<path d="M149.826 294.225C149.826 294.39 148.351 294.39 146.056 294.39C143.761 294.39 140.483 294.225 136.876 293.897C133.27 293.568 129.992 293.075 127.697 292.582C125.402 292.09 123.926 291.761 123.926 291.597C123.926 291.433 125.402 291.597 127.697 291.925C129.992 292.254 133.27 292.582 136.876 293.075C140.483 293.404 143.761 293.732 146.056 293.897C148.351 294.061 149.826 294.225 149.826 294.225Z" fill="#263238"/>
<path d="M154.908 288.147C154.908 288.311 153.433 288.804 150.974 289.461C148.515 290.118 144.909 290.94 140.975 291.433C137.04 291.925 133.434 291.925 130.811 291.925C128.188 291.925 126.713 291.597 126.713 291.597C126.713 291.433 128.352 291.433 130.811 291.433C133.434 291.433 136.876 291.104 140.811 290.775C144.745 290.283 148.187 289.625 150.646 289.133C153.269 288.311 154.744 287.983 154.908 288.147Z" fill="#263238"/>
<path d="M179.333 260.384C179.497 260.384 179.333 261.862 178.841 264.162C178.349 266.462 177.693 269.583 176.874 273.033C176.054 276.483 175.235 279.604 174.579 281.74C173.923 283.876 173.431 285.354 173.267 285.19C173.104 285.19 173.431 283.711 173.923 281.576C174.579 278.947 175.235 275.99 176.054 272.869C176.874 269.583 177.53 266.626 178.185 264.162C178.841 261.862 179.169 260.384 179.333 260.384Z" fill="#263238"/>
<path d="M107.698 297.182C107.698 297.347 102.616 296.197 96.5511 294.554C90.486 292.911 85.5682 291.268 85.5682 291.104C85.5682 290.94 90.6499 292.09 96.7151 293.732C102.78 295.375 107.698 297.018 107.698 297.182Z" fill="#263238"/>
<path d="M184.25 246.748C184.25 246.748 183.595 246.913 182.447 246.748C181.3 246.584 179.497 246.42 177.53 245.599C175.562 244.777 173.104 243.627 170.973 241.656C168.842 239.684 166.874 237.056 165.563 233.935C164.252 230.813 163.924 227.528 164.088 224.735C164.252 221.778 165.071 219.314 166.383 217.342C167.694 215.535 169.333 214.55 170.481 214.221C171.137 214.057 171.628 214.057 171.956 214.057C172.284 214.057 172.448 214.057 172.448 214.057C172.448 214.057 171.792 214.057 170.645 214.55C169.497 214.878 168.022 215.864 166.874 217.671C164.58 221.121 164.088 227.528 166.383 233.606C167.53 236.563 169.333 239.192 171.464 240.999C173.595 242.97 175.726 244.12 177.693 244.941C181.464 246.584 184.25 246.584 184.25 246.748Z" fill="#263238"/>
<path d="M222.445 248.227C222.281 248.227 221.953 241.491 222.117 233.113C222.117 224.735 222.281 217.999 222.609 217.999C222.773 217.999 223.1 224.735 222.936 233.113C222.936 241.327 222.609 248.227 222.445 248.227Z" fill="#263238"/>
<path d="M162.285 214.221C162.449 210.607 162.776 206.336 162.776 206.336C162.776 206.336 171.792 205.35 172.448 195.986C172.94 186.622 172.448 165.101 172.448 165.101L155.892 156.723L137.696 171.015L140.483 217.835L157.203 218.821C159.99 218.985 162.121 216.849 162.285 214.221Z" fill="#FFBE9D"/>
<path d="M163.924 188.593C163.924 188.593 163.924 188.758 163.76 188.922C163.596 189.086 163.268 189.415 162.776 189.415C161.793 189.415 160.645 188.265 160.318 186.786C160.154 186.129 160.154 185.308 160.318 184.651C160.481 183.994 160.809 183.336 161.301 183.172C161.465 183.008 161.793 183.172 161.957 183.172C162.121 183.336 162.285 183.336 162.285 183.501C162.449 183.829 162.285 183.994 162.285 183.994C162.285 183.994 162.285 183.829 162.121 183.665C161.957 183.501 161.629 183.336 161.301 183.501C160.973 183.665 160.645 184.158 160.645 184.651C160.481 185.143 160.481 185.801 160.645 186.458C160.973 187.772 161.793 188.758 162.612 188.922C162.94 188.922 163.268 188.758 163.432 188.758C163.924 188.758 163.924 188.593 163.924 188.593Z" fill="#EB996E"/>
<path d="M178.021 160.009C176.71 155.737 172.12 153.602 168.022 152.452C161.629 150.645 154.744 149.823 148.679 152.123C142.45 154.423 135.073 158.366 135.073 165.266C131.467 164.937 129.336 168.223 127.861 172.165C127.041 174.465 126.385 177.094 126.385 179.722C125.893 188.758 123.435 201.079 117.533 207.65C114.255 211.264 109.665 213.892 107.862 218.492C106.223 222.435 107.042 227.199 105.567 231.142C104.256 234.756 101.141 237.22 99.01 240.342C94.2562 247.077 93.9283 256.441 97.3707 263.998C100.813 271.555 107.698 276.976 115.238 279.44C122.779 281.904 131.139 281.74 138.843 279.604C144.581 278.126 150.154 275.662 154.58 271.719C159.17 267.776 162.612 262.355 163.596 256.441C164.743 249.706 162.94 242.97 161.465 236.235C157.039 215.207 158.35 214.057 163.924 194.507C164.088 194.179 164.088 193.85 164.252 193.522C164.252 193.193 164.416 193.029 164.416 192.7C164.58 191.879 164.743 191.222 164.743 190.4C163.104 191.058 161.301 190.565 159.99 189.415C158.842 188.101 158.35 186.129 158.842 184.486C159.498 182.515 161.301 181.201 163.104 180.544C164.907 179.722 166.874 179.394 168.678 178.572C172.448 176.765 175.071 172.987 176.874 169.044C178.021 166.087 179.005 162.801 178.021 160.009Z" fill="#0C0C0C"/>
<path d="M164.58 188.922C164.58 188.922 164.907 189.579 165.399 190.565C165.891 191.55 166.547 193.029 167.202 194.672L167.366 195H167.038C166.547 195 165.891 195.165 165.399 195.165C164.252 195.165 163.268 195.329 162.121 195.329C161.957 195.329 161.793 195.165 161.629 195C161.629 194.836 161.629 194.672 161.629 194.507C161.629 194.179 161.793 194.015 161.793 193.85L162.121 192.7C162.449 191.222 162.776 190.4 162.776 190.4C162.776 190.4 162.776 191.386 162.449 192.7L162.285 193.85C162.121 194.179 162.121 194.836 162.285 194.836C163.104 194.836 164.252 194.672 165.399 194.507C165.891 194.507 166.547 194.343 167.038 194.343L166.874 194.672C166.219 193.029 165.563 191.55 165.235 190.4C164.743 189.579 164.58 188.922 164.58 188.922Z" fill="#E8505B"/>
<path d="M108.518 327.246L181.136 324.946L212.773 448.648L206.872 590.586H168.35L173.104 451.605L144.909 365.523L149.499 596.336L110.649 596.829L106.551 380.144C106.387 374.065 104.42 360.594 105.075 354.516L108.518 327.246Z" fill="#0C0C0C"/>
<path d="M154.744 367.494C154.744 367.658 153.433 367.494 151.138 367.33C148.843 367.166 145.892 366.673 142.614 366.016C139.335 365.359 136.385 364.537 134.254 364.044C132.123 363.387 130.811 362.894 130.811 362.894C130.811 362.73 136.221 363.88 142.778 365.194C149.499 366.344 154.908 367.166 154.744 367.494Z" fill="#232323"/>
<path d="M206.544 583.029C206.544 583.194 197.856 583.522 187.037 583.522C176.218 583.522 167.53 583.358 167.53 583.029C167.53 582.865 176.218 582.537 187.037 582.537C197.856 582.537 206.544 582.865 206.544 583.029Z" fill="#232323"/>
<path d="M149.171 590.258C149.171 590.422 140.647 590.751 130.32 590.751C119.828 590.751 111.468 590.586 111.468 590.258C111.468 590.093 119.992 589.765 130.32 589.765C140.647 589.929 149.171 590.093 149.171 590.258Z" fill="#232323"/>
<path d="M144.089 589.765C143.925 589.765 142.778 539.331 141.794 477.233C140.811 415.135 140.155 364.701 140.319 364.701C140.483 364.701 141.63 415.135 142.614 477.233C143.761 539.331 144.417 589.765 144.089 589.765Z" fill="#232323"/>
<path d="M201.462 583.029C201.462 583.029 201.462 582.865 201.462 582.372C201.462 581.879 201.462 581.222 201.462 580.401C201.462 578.594 201.626 576.13 201.626 572.844C201.79 566.273 202.118 556.745 202.61 545.081C203.429 521.589 204.741 489.061 206.052 453.413C206.052 453.084 206.052 452.755 206.052 452.427V452.591C197.364 418.092 189.66 386.715 184.086 364.044C181.3 352.709 179.005 343.674 177.53 337.267C176.71 334.145 176.218 331.681 175.726 330.038C175.562 329.217 175.399 328.56 175.235 328.067C175.071 327.574 175.071 327.41 175.071 327.41C175.071 327.41 175.235 327.574 175.235 328.067C175.399 328.56 175.562 329.217 175.726 329.874C176.218 331.517 176.874 333.981 177.693 337.102C179.333 343.509 181.628 352.545 184.578 363.88C190.316 386.551 198.184 417.764 206.872 452.263C206.872 452.591 206.872 452.92 206.872 453.248C205.397 489.061 204.085 521.424 203.102 544.917C202.61 556.58 202.118 566.109 201.79 572.68C201.626 575.965 201.462 578.43 201.462 580.237C201.462 581.058 201.298 581.715 201.298 582.208C201.462 582.865 201.462 583.029 201.462 583.029Z" fill="#232323"/>
<path d="M188.84 449.47C188.84 449.634 185.07 450.62 180.316 451.441C176.71 452.098 173.759 452.427 172.448 452.591V452.263C172.94 452.427 173.104 452.427 173.104 452.591C173.104 452.591 172.776 452.591 172.448 452.591H171.464L172.448 452.263C173.759 451.934 176.71 451.277 180.316 450.62C184.906 449.634 188.84 449.141 188.84 449.47Z" fill="#232323"/>
<path d="M188.185 454.07C188.185 454.234 184.742 454.07 180.48 453.741C176.218 453.413 172.94 453.084 172.94 452.92C172.94 452.755 176.382 452.591 180.644 452.92C184.742 453.248 188.185 453.905 188.185 454.07Z" fill="#232323"/>
<path opacity="0.2" d="M108.19 329.874C109.993 332.338 112.452 333.16 115.402 333.653C118.353 334.145 121.304 333.817 124.254 333.488C142.942 331.353 162.94 329.546 181.3 324.946C157.531 326.26 132.451 325.767 108.682 327.246C108.682 327.246 108.518 328.888 108.354 329.217" fill="black"/>
</svg>
